<svg width="272" height="260" viewBox="0 0 272 260" xmlns="http://www.w3.org/2000/svg" xmlns:xlink="http://www.w3.org/1999/xlink"><svg width="92" height="26" viewBox="-1 -1 92 26" id="Logo-cn" y="48"><g fill="#FFF"><path d="M71.247 4.061h-9.813v1.415h2.954v5.16h-3.386v1.415h3.386v8.654h1.562v-8.654h3.735v8.472h2.95v-1.416h-1.388V4.061zm-5.297 6.576v-5.16h3.735v5.16H65.95zm-21.925 6.111h7.742v1.415h-7.742zm-5.275-2.619c0 2.574-.209 4.527-.639 6.259-.045.16.003.203.088.203h1.424c.475-2.378.538-4.351.546-5.782h1.99v4.401h-1.413c-.069 0-.122.045-.086.143l.389 1.273h2.527V4.097H38.75v10.032zm1.42-.595v-3.387h1.989v3.387H40.17zm1.988-8.021v3.361H40.17V5.513h1.988z"/><path d="M52.315 9.835h1.907V8.561h-5.555c.168-.407.318-.843.456-1.316h4.751V5.97h-1.392l.521-1.77c.028-.094-.022-.131-.083-.131h-1.209l-.56 1.9h-1.709a33.25 33.25 0 0 0 .424-2.467c.015-.106-.043-.127-.113-.127h-1.376A28.331 28.331 0 0 1 47.9 5.97h-.838l-.56-1.9h-1.209c-.061 0-.111.036-.083.131l.521 1.77h-1.355v1.274h3.165c-.129.402-.318.876-.52 1.316h-2.993v1.274h2.248c-.907 1.283-1.875 1.873-2.262 2.109v1.457c0 .073.058.151.289.021.42-.238.869-.506 1.323-.841h5.289l-.045 1.908h-4.175l.063-1.141a.084.084 0 0 0-.087-.086h-1.335l-.134 2.415c0 .049.036.086.087.086h7.204v3.444h-3.247c-.069 0-.122.045-.086.143l.389 1.273h4.505v-6.134H52.29l.058-2.477c.66.611 1.329 1.066 1.937 1.41.231.131.289.053.289-.021v-1.457c-.385-.236-1.352-.828-2.259-2.109zm-1.738 0c.34.558.706 1.044 1.085 1.472h-4.648c.361-.415.71-.899 1.036-1.472h2.527zm11.847 5.929l-2.634 1.989V8.552h-3.649v1.557h2.098v8.816l-.839.633.857 1.129 4.308-3.253v-1.603c0-.077-.085-.109-.141-.067zm-3.979-8.606h1.707c.076 0 .107-.082.073-.133l-2.153-3.278h-1.707c-.065 0-.111.074-.076.128.035.056 2.156 3.283 2.156 3.283zm17.492-2.719h12.327v1.557H75.937zm4.471 7.441H90v-1.557H74.201v1.557h4.383l-3.193 8.359c-.025.069.021.12.08.12h13.627c.064 0 .101-.063.078-.124l-2.032-5.325h-1.696a.086.086 0 0 0-.081.118l1.438 3.773H77.77l2.638-6.921zm-49.348-.963a7.682 7.682 0 0 0-5.491-2.307c-1.865 0-3.471.641-4.873 1.779-.611.496-1.252 1.09-2.059 1.871l-9.024 8.728a67.369 67.369 0 0 1-1.793-.029c-1.734-.059-2.791-.722-3.383-1.307-1.846-1.821-1.889-4.777-.073-6.628a4.755 4.755 0 0 1 3.342-1.402c.818-.003 1.929.234 3.184 1.27.618.51 2.013 1.734 2.565 2.232l2.166-2.106c-.992-.895-2.44-2.184-3.3-2.823-.888-.662-1.845-1.133-2.882-1.382l.034.007a7.315 7.315 0 0 1 7.16-5.799c2.923 0 5.487 1.757 6.643 4.247.018.039.049.052.081.044.869-.238 1.912-.377 2.918-.303.098.007.136-.048.104-.137A10.338 10.338 0 0 0 16.633.006 10.342 10.342 0 0 0 6.42 8.717h.007a7.7 7.7 0 0 0-4.221 2.201 7.675 7.675 0 0 0 .119 10.887c1.227 1.201 2.714 1.855 4.299 2.075.609.086 1.446.112 2.193.117.699.004 14.042.003 14.601.003 1.124 0 1.856-.001 2.642-.058 1.802-.131 3.505-.79 4.881-2.137a7.675 7.675 0 0 0 .119-10.888zm-2.232 8.734c-.592.584-1.649 1.248-3.383 1.307a70.55 70.55 0 0 1-2.167.03h-9.319l6.684-6.471c.307-.298.999-.957 1.595-1.492 1.309-1.175 2.487-1.411 3.321-1.404a4.751 4.751 0 0 1 3.342 1.402c1.816 1.851 1.773 4.808-.073 6.628z"/></g></svg><svg width="164" height="26" viewBox="-0.83 -1 164 26" id="Logo-en"><path d="M9.445 8.818c.697-3.328 3.64-5.802 7.138-5.802 2.914 0 5.47 1.757 6.623 4.248.018.039.049.052.08.044.867-.238 1.906-.377 2.91-.303.098.007.136-.048.104-.137C24.883 2.867 21.069 0 16.583 0 11.437 0 7.173 3.784 6.4 8.713h.007a7.694 7.694 0 0 0-4.089 13.09c1.223 1.201 2.706 1.855 4.286 2.076.607.087 1.441.112 2.186.117.697.005 14.001.004 14.557.004 1.121 0 1.85-.001 2.634-.058 1.797-.132 3.494-.79 4.867-2.138a7.694 7.694 0 0 0 .119-10.889 7.645 7.645 0 0 0-5.474-2.308c-1.86 0-3.46.641-4.858 1.779-.609.496-1.248 1.09-2.052 1.871l-8.996 8.73a67.018 67.018 0 0 1-1.788-.029c-1.729-.059-2.783-.722-3.373-1.307-1.84-1.821-1.883-4.779-.072-6.63a4.731 4.731 0 0 1 3.332-1.402c.816-.003 1.923.234 3.174 1.271.597.495 1.923 1.661 2.505 2.185.03.027.065.029.1.001l2.053-2.003c.035-.034.033-.081-.002-.113-.987-.892-2.387-2.141-3.229-2.768-.877-.655-1.821-1.123-2.842-1.374zm19.296 10.833c-.59.584-1.644 1.248-3.373 1.307-.799.027-1.733.03-2.161.03h-9.291a20441.7 20441.7 0 0 1 6.664-6.472c.306-.297.996-.957 1.59-1.492 1.305-1.175 2.48-1.412 3.311-1.404a4.731 4.731 0 0 1 3.332 1.402c1.812 1.85 1.769 4.807-.072 6.629zm94.961-4.28a.1.1 0 0 0-.174-.068c-1.115 1.233-2.811 2.27-4.966 2.27-3.196 0-5.261-2.208-5.261-5.626 0-3.482 1.968-5.646 5.136-5.646 1.842 0 3.762.881 4.91 2.074a.1.1 0 0 0 .172-.07V6.544c-1.295-1.166-3.172-1.869-5.082-1.869-1.989 0-3.674.695-4.871 2.011-1.186 1.303-1.812 3.122-1.812 5.261 0 4.35 2.737 7.273 6.81 7.273 1.944 0 3.841-.721 5.14-1.919v-1.93zM36.803 5.038v1.51h4.776V18.86h1.654V6.548h4.776v-1.51zm123.505 4.723c-.855-.926-2.284-1.263-3.312-1.263-1.374 0-2.607.512-3.472 1.443-.89.957-1.36 2.284-1.36 3.837 0 3.688 2.447 5.338 4.872 5.338 1.417 0 2.586-.506 3.273-1.403v1.167h1.648V5.06h-1.648v4.701zm-.043 4.056c0 1.887-1.096 3.797-3.189 3.797-1.573 0-3.265-1.164-3.265-3.719 0-1.877.991-3.898 3.167-3.898 2.426.001 3.287 2.058 3.287 3.82zM125.889 5.06h1.673v13.821h-1.673zM77.72 16.321a.1.1 0 0 0-.167-.074c-1.077.972-2.64 1.351-3.324 1.351-2.218 0-3.652-1.487-3.652-3.789s1.433-3.79 3.652-3.79c.685 0 2.201.192 3.326 1.162a.1.1 0 0 0 .165-.076V9.582c-.678-.427-2.104-1.085-3.579-1.085-3.064 0-5.122 2.135-5.122 5.311 0 3.177 2.059 5.311 5.122 5.311 1.267 0 2.508-.342 3.579-1.089v-1.709zm-21.607-.326c0-.097-.122-.137-.181-.059-.735.968-2.492 1.749-3.572 1.749-1.033 0-2.004-.341-2.534-.889a3.582 3.582 0 0 1-.985-2.52h7.733v-.118c0-2.181-.372-3.418-1.326-4.411-.797-.829-1.893-1.25-3.259-1.25-2.893 0-4.762 2.07-4.762 5.279.106 3.338 2.002 5.33 5.072 5.33 1.464 0 2.703-.493 3.813-1.461v-1.65zm-1.102-3.14h-6.174l.002-.031a3.085 3.085 0 0 1 1.124-2.192c.534-.442 1.238-.685 1.982-.685 1.802 0 2.976 1.103 3.064 2.878l.002.03zm93.634 1.041c0 2.753-1.588 3.73-2.948 3.73-1.318 0-2.719-.911-2.719-2.6V8.734h-1.573v6.264c0 2.425 1.732 4.119 4.211 4.119 1.373 0 2.445-.463 3.126-1.343v1.105h1.5V8.734h-1.598v5.162zM63.072 8.499c-1.266 0-2.338.423-3.057 1.198v-.969h-1.562v10.153h1.597v-5.785c0-.956.292-1.768.823-2.287.572-.56 1.279-.819 2.157-.792 1.251.038 2.514.866 2.514 2.631v6.234h1.597v-6.309c0-1.251-.397-2.293-1.149-3.014-.723-.694-1.732-1.06-2.92-1.06zm25.078 7.496c0-.097-.122-.137-.181-.059-.735.968-2.492 1.749-3.572 1.749-1.033 0-2.004-.341-2.534-.889a3.582 3.582 0 0 1-.985-2.52h7.733v-.118c0-2.181-.372-3.418-1.326-4.411-.797-.829-1.893-1.25-3.259-1.25-2.893 0-4.762 2.07-4.762 5.279.106 3.338 2.002 5.33 5.072 5.33 1.464 0 2.703-.493 3.813-1.461v-1.65zm-1.102-3.14h-6.174l.002-.031A3.085 3.085 0 0 1 82 10.632c.534-.442 1.238-.685 1.982-.685 1.802 0 2.976 1.103 3.064 2.878l.002.03zm8.035-4.356c-1.266 0-2.338.423-3.057 1.198v-.969h-1.562v10.153h1.597v-5.785c0-.956.292-1.768.823-2.287.572-.56 1.279-.819 2.157-.792 1.251.038 2.514.866 2.514 2.631v6.234h1.597v-6.309c0-1.251-.397-2.293-1.149-3.014-.722-.694-1.732-1.06-2.92-1.06zm9.291 10.517c.969-.053 2.079-.472 2.079-.472v-1.529a.1.1 0 0 0-.133-.095c-.379.134-1.256.405-1.712.47-.167.027-.314.05-.424-.043-.072-.062-.109-.144-.109-.322v-6.82h2.923V8.727h-2.923V6.021h-1.659v2.705h-1.666v1.477h1.666v6.98c0 .6.183 1.065.543 1.381.338.297.83.452 1.415.452zm30.3-10.498c-2.945 0-4.923 2.129-4.923 5.299s1.978 5.299 4.923 5.299c2.945 0 4.923-2.129 4.923-5.299s-1.979-5.299-4.923-5.299zm-3.396 5.288l-.001-.004c.006-2.246 1.37-3.754 3.396-3.754 2.031 0 3.396 1.514 3.396 3.769-.001 2.254-1.366 3.769-3.396 3.769-2.029-.001-3.393-1.528-3.395-3.78z" fill="#FFF"/></svg><svg id="TDSQL-y" width="18" height="18" viewBox="-42 42 18 18" x="144" y="98"><style>.acst0{fill-rule:evenodd;clip-rule:evenodd;fill:#ffb800}</style><path class="acst0" d="M-30.5 59c-3 0-5.5-2.5-5.5-5.5s2.5-5.5 5.5-5.5 5.5 2.5 5.5 5.5-2.5 5.5-5.5 5.5zm0-10c-2.5 0-4.5 2-4.5 4.5s2 4.5 4.5 4.5 4.5-2 4.5-4.5-2-4.5-4.5-4.5zm.5 8h-1v-1h-1v-1h2v-1h1v2h-1v1zm-1-4h1v1h-1v-1zm-1-2h1v-1h1v1h1v1h-2v1h-1v-2zm-2-7c-3.3 0-6 1.1-6 2.5 0 1 1.5 1.9 3.7 2.3l-.6.9c-1.3-.3-2.3-.8-3.1-1.4v2.2c0 .8.8 1.4 2.1 1.9 0 .3-.1.6-.1 1-.8-.3-1.5-.6-2-1.1v2.2c0 .9 1.1 1.6 2.7 2.1l.6 1.2c-2.5-.5-4.3-1.8-4.3-3.2v-8c0-1.9 3.1-3.5 7-3.5s7 1.6 7 3.5v.4c-.3-.2-.7-.3-1-.4-.1-1.5-2.7-2.6-6-2.6z"/></svg><svg width="18" height="18" viewBox="-42 42 18 18" id="TDSQL-y-#FFFFFF" x="182"><style>.adst0{fill-rule:evenodd;clip-rule:evenodd;fill:#fff}</style><path class="adst0" d="M-30.5 59c-3 0-5.5-2.5-5.5-5.5s2.5-5.5 5.5-5.5 5.5 2.5 5.5 5.5-2.5 5.5-5.5 5.5zm0-10c-2.5 0-4.5 2-4.5 4.5s2 4.5 4.5 4.5 4.5-2 4.5-4.5-2-4.5-4.5-4.5zm.5 8h-1v-1h-1v-1h2v-1h1v2h-1v1zm-1-4h1v1h-1v-1zm-1-2h1v-1h1v1h1v1h-2v1h-1v-2zm-2-7c-3.3 0-6 1.1-6 2.5 0 1 1.5 1.9 3.7 2.3l-.6.9c-1.3-.3-2.3-.8-3.1-1.4v2.2c0 .8.8 1.4 2.1 1.9 0 .3-.1.6-.1 1-.8-.3-1.5-.6-2-1.1v2.2c0 .9 1.1 1.6 2.7 2.1l.6 1.2c-2.5-.5-4.3-1.8-4.3-3.2v-8c0-1.9 3.1-3.5 7-3.5s7 1.6 7 3.5v.4c-.3-.2-.7-.3-1-.4-.1-1.5-2.7-2.6-6-2.6z"/></svg><svg id="accounts-y" width="18" height="18" viewBox="-42 42 18 18" x="200" y="126"><style>.aest0{fill:#ffb800}</style><path class="aest0" d="M-25 50.1c-.5-4.4-4.5-7.6-8.9-7.1s-7.6 4.5-7.1 8.9 4.5 7.6 8.9 7.1c4.5-.5 7.6-4.5 7.1-8.9zm-7.2 8c-3.9.4-7.4-2.3-7.8-6.2-.4-3.9 2.3-7.4 6.2-7.8 3.9-.4 7.4 2.3 7.8 6.2.5 3.8-2.3 7.4-6.2 7.8zm3.2-7c0-.2.1-.4.1-.6 0-1.9-1.6-3.5-3.5-3.5-1.8 0-3.2 1.3-3.5 3h-.1c-1.1 0-2 .9-2 2s.9 2 2 2h6.5c.8 0 1.5-.7 1.5-1.5.1-.6-.4-1.2-1-1.4zm-.4 2H-36c-.6 0-1-.5-1-1s.4-1 1-1h1l.1-.9c.2-1.2 1.2-2.2 2.5-2.2 1.4 0 2.5 1.1 2.5 2.5v.4l-.1.9.8.3c.2.1.4.2.4.5-.1.2-.4.5-.6.5z"/></svg><svg width="18" height="18" viewBox="-42 42 18 18" id="accounts-y-#FFFFFF" x="18" y="188"><style>.afst0{fill:#fff}</style><path class="afst0" d="M-25 50.1c-.5-4.4-4.5-7.6-8.9-7.1s-7.6 4.5-7.1 8.9 4.5 7.6 8.9 7.1c4.5-.5 7.6-4.5 7.1-8.9zm-7.2 8c-3.9.4-7.4-2.3-7.8-6.2-.4-3.9 2.3-7.4 6.2-7.8 3.9-.4 7.4 2.3 7.8 6.2.5 3.8-2.3 7.4-6.2 7.8zm3.2-7c0-.2.1-.4.1-.6 0-1.9-1.6-3.5-3.5-3.5-1.8 0-3.2 1.3-3.5 3h-.1c-1.1 0-2 .9-2 2s.9 2 2 2h6.5c.8 0 1.5-.7 1.5-1.5.1-.6-.4-1.2-1-1.4zm-.4 2H-36c-.6 0-1-.5-1-1s.4-1 1-1h1l.1-.9c.2-1.2 1.2-2.2 2.5-2.2 1.4 0 2.5 1.1 2.5 2.5v.4l-.1.9.8.3c.2.1.4.2.4.5-.1.2-.4.5-.6.5z"/></svg><svg id="all-1" width="18" height="18" viewBox="-1 -1 18 18" x="114" y="48"><style>.agst0{fill-rule:evenodd;clip-rule:evenodd;fill:#5e646c}</style><g id="agXMLID_2_"><g id="agXMLID_42_"><path id="agXMLID_44_" class="agst0" d="M2 3v2h12V3H2zm0 6h12V7H2v2zm0 4h12v-2H2v2z"/></g></g></svg><svg id="all-2" width="18" height="18" viewBox="-1 -1 18 18" x="132" y="48"><style>.ahst0{fill-rule:evenodd;clip-rule:evenodd;fill:#008bff}</style><g id="ahXMLID_2_"><g id="ahXMLID_42_"><path id="ahXMLID_44_" class="ahst0" d="M2 3v2h12V3H2zm0 6h12V7H2v2zm0 4h12v-2H2v2z"/></g></g></svg><svg id="analysis-y" width="18" height="18" viewBox="-42 42 18 18" x="86" y="74"><style>.aist0{fill:#ffb800}</style><path class="aist0" d="M-25 54V44h-16v13h16v-1h-15v-8h14v6h1zm-15-7v-2h14v2h-14zm11 3h-1v-1h-1v1h-6v1h8v-1zm-6 4v-1h6v-1h-8v1h1v1h1z"/></svg><svg width="18" height="18" viewBox="-42 42 18 18" id="analysis-y-#FFFFFF" x="104" y="74"><style>.ajst0{fill:#fff}</style><path class="ajst0" d="M-25 54V44h-16v13h16v-1h-15v-8h14v6h1zm-15-7v-2h14v2h-14zm11 3h-1v-1h-1v1h-6v1h8v-1zm-6 4v-1h6v-1h-8v1h1v1h1z"/></svg><svg id="app-y" width="18" height="18" viewBox="-42 42 18 18" x="122" y="74"><style>.akst0{fill:#ffb800}</style><path class="akst0" d="M-26 43h-15v7s0 8 7.5 9c7.5-1 7.5-9 7.5-9v-4h-1v4c0 .3-.1 7.1-6.5 8-6.4-.9-6.5-7.7-6.5-8v-6h14v-1zm-10 9v-4h-3v4h1v-1h1v1h1zm-2-2v-1h1v1h-1zm4 2v-1h2v-3h-3v4h1zm0-3h1v1h-1v-1zm4 3v-1h2v-3h-3v4h1zm0-3h1v1h-1v-1z"/></svg><svg width="18" height="18" viewBox="-42 42 18 18" id="app-y-#FFFFFF" x="140" y="74"><style>.alst0{fill:#fff}</style><path class="alst0" d="M-26 43h-15v7s0 8 7.5 9c7.5-1 7.5-9 7.5-9v-4h-1v4c0 .3-.1 7.1-6.5 8-6.4-.9-6.5-7.7-6.5-8v-6h14v-1zm-10 9v-4h-3v4h1v-1h1v1h1zm-2-2v-1h1v1h-1zm4 2v-1h2v-3h-3v4h1zm0-3h1v1h-1v-1zm4 3v-1h2v-3h-3v4h1zm0-3h1v1h-1v-1z"/></svg><svg id="arrow-2" width="18" height="18" viewBox="-1 -1 18 18" y="98"><style>.amst0{fill-rule:evenodd;clip-rule:evenodd;fill:#008bff}</style><g id="amXMLID_16_"><path id="amXMLID_17_" class="amst0" d="M10.5 8l-.7-.7-3.6-3.5-.7.7L9.1 8l-3.6 3.5.7.7 3.6-3.5z"/></g></svg><svg id="builder-y" width="18" height="18" viewBox="-42 42 18 18" x="18" y="98"><style>.anst0{fill:#ffb800}</style><path class="anst0" d="M-36.8 46l-4.2 5 4.2 5h1.3l-4.2-5 4.2-5h-1.3zm7.6 0h-1.3l4.2 5-4.2 5h1.3l4.2-5-4.2-5zm-6 11h1l3.4-12h-1l-3.4 12z"/></svg><svg width="18" height="18" viewBox="-42 42 18 18" id="builder-y-#FFFFFF" x="36" y="98"><style>.aost0{fill:#fff}</style><path class="aost0" d="M-36.8 46l-4.2 5 4.2 5h1.3l-4.2-5 4.2-5h-1.3zm7.6 0h-1.3l4.2 5-4.2 5h1.3l4.2-5-4.2-5zm-6 11h1l3.4-12h-1l-3.4 12z"/></svg><svg id="cdn-y" width="18" height="18" viewBox="-42 42 18 18" x="54" y="98"><style>.apst0{fill-rule:evenodd;clip-rule:evenodd;fill:#ffb800}</style><path class="apst0" d="M-40 54.8l7.5 3.9.5.3v-7.8l-8-4.2v7.8zm1-6.2l6 3.2v5.6l-6-3.2v-5.6zm5-5.6v1.1l1 .5h.1l4.9 2.6 1 .5v6.7l1 .5v-7.8l-8-4.1zm-3 3.1l1 .5h.1l4.9 2.6 1 .5v6.7l1 .5v-7.8l-8-4.2v1.2z"/></svg><svg width="18" height="18" viewBox="-42 42 18 18" id="cdn-y-#FFFFFF" x="72" y="98"><style>.aqst0{fill-rule:evenodd;clip-rule:evenodd;fill:#fff}</style><path class="aqst0" d="M-40 54.8l7.5 3.9.5.3v-7.8l-8-4.2v7.8zm1-6.2l6 3.2v5.6l-6-3.2v-5.6zm5-5.6v1.1l1 .5h.1l4.9 2.6 1 .5v6.7l1 .5v-7.8l-8-4.1zm-3 3.1l1 .5h.1l4.9 2.6 1 .5v6.7l1 .5v-7.8l-8-4.2v1.2z"/></svg><svg id="cfs-y" width="18" height="18" viewBox="-1 -1 18 18" x="90" y="98"><style>.arst0{fill-rule:evenodd;clip-rule:evenodd;fill:#ffb800}</style><g id="arXMLID_2_"><g id="arXMLID_64_"><path id="arXMLID_65_" class="arst0" d="M8 9.2l7-3.9V3.9L8 0 1 4v1.2l7 4zm0-8V.6v.6l6.2 3.4L8 8v.6V8L2 4.6l6-3.4zM8 12l7-3.9V7l-7 3.9v.9-1l-7-4V8l7 4zm7-2l-7 3.9v.2-.3l-7-4V11l7 4 7-3.9V10z"/></g></g></svg><svg width="18" height="18" viewBox="-1 -1 18 18" id="cfs-y-#FFFFFF" x="108" y="98"><style>.asst0{fill-rule:evenodd;clip-rule:evenodd;fill:#fff}</style><path class="asst0" d="M8 9.2l7-3.9V3.9L8 0 1 4v1.2l7 4zm0-8V.6v.6l6.2 3.4L8 8v.6V8L2 4.6l6-3.4zM8 12l7-3.9V7l-7 3.9v.9-1l-7-4V8l7 4zm7-2l-7 3.9v.2-.3l-7-4V11l7 4 7-3.9V10z"/></svg><svg id="close" viewBox="-1 -1 22 22" width="22" height="22" x="130" y="26"><style>.atst0,.atst1{fill-rule:evenodd;clip-rule:evenodd;fill:#c6c6c6}.atst1{fill:#fff}</style><path id="atXMLID_2_" class="atst0" d="M10 0c5.5 0 10 4.5 10 10s-4.5 10-10 10S0 15.5 0 10 4.5 0 10 0z"/><g id="atXMLID_4_"><g id="atXMLID_24_"><path id="atXMLID_25_" class="atst1" d="M14.9 6.5l-1.4-1.4L10 8.6 6.5 5.1 5.1 6.5 8.6 10l-3.5 3.5 1.4 1.4 3.5-3.5 3.5 3.5 1.4-1.4-3.5-3.5z"/></g></g></svg><svg id="close-active" viewBox="-1 -1 22 22" width="22" height="22" x="92" y="48"><style>.aust0,.aust1{fill-rule:evenodd;clip-rule:evenodd;fill:#2277da}.aust1{fill:#fff}</style><path id="auXMLID_2_" class="aust0" d="M10 0c5.5 0 10 4.5 10 10s-4.5 10-10 10S0 15.5 0 10 4.5 0 10 0z"/><g id="auXMLID_4_"><g id="auXMLID_24_"><path id="auXMLID_25_" class="aust1" d="M14.9 6.5l-1.4-1.4L10 8.6 6.5 5.1 5.1 6.5 8.6 10l-3.5 3.5 1.4 1.4 3.5-3.5 3.5 3.5 1.4-1.4-3.5-3.5z"/></g></g></svg><svg id="cloud-market-y" width="18" height="18" viewBox="-170 25 18 18" y="116"><style>.avst0{fill:#ffb800}</style><path class="avst0" d="M-164 37h5v1h-5zm10-6l-1-4c0-.6-.4-1-1-1h-11c-.6 0-1 .4-1 1l-1 4v1c0 1.1.9 2 2 2s2-.9 2-2c0 1.1.9 2 2 2 .6 0 1.1-.3 1.5-.7.4.4.9.7 1.5.7 1.1 0 2-.9 2-2v-1h-1v1c0 .6-.4 1-1 1s-1-.4-1-1v-1h-1v1c0 .6-.4 1-1 1s-1-.4-1-1v-1h-1v1h-1c0 .6-.4 1-1 1s-1-.4-1-1v-.9l1-4.1h11l1 4.1v.9c0 .6-.4 1-1 1s-1-.4-1-1h-1c0 1.1.9 2 2 2s2-.9 2-2v-1z"/><path class="avst0" d="M-156 40h-11v-5h-1v6h13v-6h-1z"/></svg><svg width="18" height="18" viewBox="-170 25 18 18" id="cloud-market-y-#FFFFFF" x="18" y="116"><style>.awst0{fill:#fff}</style><path class="awst0" d="M-164 37h5v1h-5zm10-6l-1-4c0-.6-.4-1-1-1h-11c-.6 0-1 .4-1 1l-1 4v1c0 1.1.9 2 2 2s2-.9 2-2c0 1.1.9 2 2 2 .6 0 1.1-.3 1.5-.7.4.4.9.7 1.5.7 1.1 0 2-.9 2-2v-1h-1v1c0 .6-.4 1-1 1s-1-.4-1-1v-1h-1v1c0 .6-.4 1-1 1s-1-.4-1-1v-1h-1v1h-1c0 .6-.4 1-1 1s-1-.4-1-1v-.9l1-4.1h11l1 4.1v.9c0 .6-.4 1-1 1s-1-.4-1-1h-1c0 1.1.9 2 2 2s2-.9 2-2v-1z"/><path class="awst0" d="M-156 40h-11v-5h-1v6h13v-6h-1z"/></svg><svg id="cloud-pay-y" width="18" height="18" viewBox="-1 -1 18 18" x="36" y="116"><style>.axst0{fill-rule:evenodd;clip-rule:evenodd;fill:#ffb800}</style><path class="axst0" d="M15 11V1H0v13h15v-1H1V2h13v9h1zm-5-6V4H8V3H7v1c-1.1 0-2 .9-2 2s.9 2 2 2v2H5v1h2v1h1v-1c1.1 0 2-.9 2-2s-.9-2-2-2V5h2zM7 7c-.5 0-1-.4-1-1s.4-1 1-1v2zm2 2c0 .6-.4 1-1 1V8c.6 0 1 .4 1 1z"/></svg><svg width="18" height="18" viewBox="-1 -1 18 18" id="cloud-pay-y-#FFFFFF" x="54" y="116"><style>.ayst0{fill-rule:evenodd;clip-rule:evenodd;fill:#fff}</style><path class="ayst0" d="M15 11V1H0v13h15v-1H1V2h13v9h1zm-5-6V4H8V3H7v1c-1.1 0-2 .9-2 2s.9 2 2 2v2H5v1h2v1h1v-1c1.1 0 2-.9 2-2s-.9-2-2-2V5h2zM7 7c-.5 0-1-.4-1-1s.4-1 1-1v2zm2 2c0 .6-.4 1-1 1V8c.6 0 1 .4 1 1z"/></svg><svg id="cloudsearch-y" width="18" height="18" viewBox="-42 42 18 18" x="72" y="116"><style>.azst0{fill:#ffb800}</style><path class="azst0" d="M-35.4 49c1.4 0 1.4 1.9 1.4 2h1c0-1-.5-3-2.4-3-1 0-2.6.4-2.6 3 0 1.3 1.4 2 2.1 2h3.9v-1h-4c-.2 0-1.1-.3-1.1-1 .1-1.8.9-2 1.7-2zm7.5 6.6c1.5-1.8 3.2-5.7.6-9.2-2.3-3.3-5.3-3.5-7.5-3.3-2 .2-3.8 1.4-5.1 3.3-1.3 1.9-1.4 4.7-.6 6.2 1.9 3.9 5.8 3.8 5.9 3.8 2.6 0 5.5-1.4 5.6-5.3 0-1.8-.4-3.1-1.3-4-.7-.7-1.6-1.1-2.7-1.1-2 0-2.6 1-2.7 1.1l.9.5s.4-.6 1.8-.6c.6 0 1.4.1 2 .8.7.7 1 1.8 1 3.3-.1 4-3.5 4.3-4.6 4.3 0 0-3.4.1-5-3.2-.6-1.2-.6-3.6.5-5.2s2.7-2.7 4.4-2.8c2.1-.2 4.6 0 6.6 2.9 2.3 3.3.4 6.9-.9 8.3l-.3.3 2.7 2.8.7-.7-2-2.2z"/></svg><svg width="18" height="18" viewBox="-42 42 18 18" id="cloudsearch-y-#FFFFFF" x="90" y="116"><style>.bast0{fill:#fff}</style><path class="bast0" d="M-35.4 49c1.4 0 1.4 1.9 1.4 2h1c0-1-.5-3-2.4-3-1 0-2.6.4-2.6 3 0 1.3 1.4 2 2.1 2h3.9v-1h-4c-.2 0-1.1-.3-1.1-1 .1-1.8.9-2 1.7-2zm7.5 6.6c1.5-1.8 3.2-5.7.6-9.2-2.3-3.3-5.3-3.5-7.5-3.3-2 .2-3.8 1.4-5.1 3.3-1.3 1.9-1.4 4.7-.6 6.2 1.9 3.9 5.8 3.8 5.9 3.8 2.6 0 5.5-1.4 5.6-5.3 0-1.8-.4-3.1-1.3-4-.7-.7-1.6-1.1-2.7-1.1-2 0-2.6 1-2.7 1.1l.9.5s.4-.6 1.8-.6c.6 0 1.4.1 2 .8.7.7 1 1.8 1 3.3-.1 4-3.5 4.3-4.6 4.3 0 0-3.4.1-5-3.2-.6-1.2-.6-3.6.5-5.2s2.7-2.7 4.4-2.8c2.1-.2 4.6 0 6.6 2.9 2.3 3.3.4 6.9-.9 8.3l-.3.3 2.7 2.8.7-.7-2-2.2z"/></svg><svg id="cloudservice-y" width="18" height="18" viewBox="-42 42 18 18" x="108" y="116"><style>.bbst0{fill:#ffb800}</style><path class="bbst0" d="M-26 49h-1c0-3.3-2.7-6-6-6s-6 2.7-6 6h-1c-.6 0-1 .4-1 1v3c0 .6.4 1 1 1h2v-5c0-2.8 2.2-5 5-5s5 2.2 5 5v4c0 1.7-1.3 3-3 3h-4v2h4v-1c1.9 0 3.4-1.3 3.9-3h1.1c.6 0 1-.4 1-1v-3c0-.6-.4-1-1-1zm-13 4h-1v-3h1v3zm13 0h-1v-3h1v3zm-4-4h-6v1h6v-1zm-1 3v-1h-4v1h4z"/></svg><svg width="18" height="18" viewBox="-42 42 18 18" id="cloudservice-y-#FFFFFF" x="126" y="116"><style>.bcst0{fill:#fff}</style><path class="bcst0" d="M-26 49h-1c0-3.3-2.7-6-6-6s-6 2.7-6 6h-1c-.6 0-1 .4-1 1v3c0 .6.4 1 1 1h2v-5c0-2.8 2.2-5 5-5s5 2.2 5 5v4c0 1.7-1.3 3-3 3h-4v2h4v-1c1.9 0 3.4-1.3 3.9-3h1.1c.6 0 1-.4 1-1v-3c0-.6-.4-1-1-1zm-13 4h-1v-3h1v3zm13 0h-1v-3h1v3zm-4-4h-6v1h6v-1zm-1 3v-1h-4v1h4z"/></svg><svg id="cmq-y" width="18" height="18" viewBox="-42 42 18 18" x="144" y="116"><style>.bdst0{fill:#ffb800}</style><path class="bdst0" d="M-26 49v-5h-14v5h4l-1 1v1h10v3h-1v1h2v-5h-4l1-1v-1h-10v-3h12v4h1zm-8.6 0h4.2l-1 1h-4.2l1-1zm-4.4 5v-4h-1v5h7.8l3 3h1.4l-4-4H-39z"/></svg><svg width="18" height="18" viewBox="-42 42 18 18" id="cmq-y-#FFFFFF" y="134"><style>.best0{fill:#fff}</style><path class="best0" d="M-26 49v-5h-14v5h4l-1 1v1h10v3h-1v1h2v-5h-4l1-1v-1h-10v-3h12v4h1zm-8.6 0h4.2l-1 1h-4.2l1-1zm-4.4 5v-4h-1v5h7.8l3 3h1.4l-4-4H-39z"/></svg><svg id="communication-y" width="18" height="18" viewBox="-42 42 18 18" x="18" y="134"><style>.bfst0{fill-rule:evenodd;clip-rule:evenodd;fill:#ffb800}</style><path class="bfst0" d="M-26 56h1v1h-16V44h16v10h-1v-6h-14v8h14zm0-9v-2h-14v2h14zm-10 3h6v1h-6v-1zm6 3h-6v-1h6v1z"/></svg><svg width="18" height="18" viewBox="-42 42 18 18" id="communication-y-#FFFFFF" x="36" y="134"><style>.bgst0{fill-rule:evenodd;clip-rule:evenodd;fill:#fff}</style><path class="bgst0" d="M-26 56h1v1h-16V44h16v10h-1v-6h-14v8h14zm0-9v-2h-14v2h14zm-10 3h6v1h-6v-1zm6 3h-6v-1h6v1z"/></svg><svg id="cooperation-server-y" width="18" height="18" viewBox="-1 -1 18 18" x="54" y="134"><style>.bhst0{fill:#ffb800}</style><path class="bhst0" d="M9 1V0H8v7L2 4.4 8 1V0L1 4v7l5 2.9V7.2l2 .9v6h1V1zm-7 9.6V5.4l3 1.3v5.6l-3-1.7zM8 15h1v-1H8v1zm8-11l-5-2.9v6.8L9 7v1l6 2.6L9 14v1l7-4V4zm-1 5.6l-3-1.3V2.7l3 1.7v5.2z"/></svg><svg width="18" height="18" viewBox="-1 -1 18 18" id="cooperation-server-y-#FFFFFF" x="72" y="134"><style>.bist0{fill:#fff}</style><path class="bist0" d="M9 1V0H8v7L2 4.4 8 1V0L1 4v7l5 2.9V7.2l2 .9v6h1V1zm-7 9.6V5.4l3 1.3v5.6l-3-1.7zM8 15h1v-1H8v1zm8-11l-5-2.9v6.8L9 7v1l6 2.6L9 14v1l7-4V4zm-1 5.6l-3-1.3V2.7l3 1.7v5.2z"/></svg><svg width="18" height="18" viewBox="-1 -1 18 18" id="csg-y" x="90" y="134"><style>.bjst4{fill:#ffb800}</style><g id="bjXMLID_1_"><path id="bjXMLID_8_" class="bjst4" d="M14 8.4L9 5.7c0-.5-.5-.9-1-.9-.6 0-1 .4-1 1s.4 1 1 1c.2 0 .4-.1.5-.2L14 9.5v1.9l-6.5 3.5L1 11.4V9.5L0 9v3l7.5 4 7.5-4V8.9l-1-.5z"/><path id="bjXMLID_10_" class="bjst4" d="M1.3 7.7l5.7 3c.1.5.5.9 1 .9.6 0 1-.4 1-1s-.4-1-1-1c-.2 0-.4.1-.6.2L1 6.4V4.6l6.5-3.4L14 4.6v1.9l1 .5V4L7.5 0 0 4v3l1.3.7z"/></g></svg><svg width="18" height="18" viewBox="-1 -1 18 18" id="csg-y-#FFFFFF" x="108" y="134"><style>.bkst4{fill:#fff}</style><path class="bkst4" d="M14 8.4L9 5.7c0-.5-.5-.9-1-.9-.6 0-1 .4-1 1s.4 1 1 1c.2 0 .4-.1.5-.2L14 9.5v1.9l-6.5 3.5L1 11.4V9.5L0 9v3l7.5 4 7.5-4V8.9l-1-.5z"/><path class="bkst4" d="M1.3 7.7l5.7 3c.1.5.5.9 1 .9.6 0 1-.4 1-1s-.4-1-1-1c-.2 0-.4.1-.6.2L1 6.4V4.6l6.5-3.4L14 4.6v1.9l1 .5V4L7.5 0 0 4v3l1.3.7z"/></svg><svg id="css-y" width="18" height="18" viewBox="-42 42 18 18" x="126" y="134"><style>.blst0{fill:#ffb800}</style><path class="blst0" d="M-41 50h7v-6.7l-7 3.7v3zm1-2.4l5-2.7V49h-5v-1.4zm7-4.3V50h7v-3l-7-3.7zm6 5.7h-5v-4.1l5 2.7V49zm-14 6l7 3.7V52h-7v3zm1-2h5v4.1l-5-2.7V53zm7 5.7l7-3.7v-3h-7v6.7zm1-5.7h5v1.4l-5 2.7V53z"/></svg><svg width="18" height="18" viewBox="-42 42 18 18" id="css-y-#FFFFFF" x="144" y="134"><style>.bmst0{fill:#fff}</style><path class="bmst0" d="M-41 50h7v-6.7l-7 3.7v3zm1-2.4l5-2.7V49h-5v-1.4zm7-4.3V50h7v-3l-7-3.7zm6 5.7h-5v-4.1l5 2.7V49zm-14 6l7 3.7V52h-7v3zm1-2h5v4.1l-5-2.7V53zm7 5.7l7-3.7v-3h-7v6.7zm1-5.7h5v1.4l-5 2.7V53z"/></svg><svg width="18" height="18" viewBox="-1 -1 18 18" id="cz-y" x="164"><g fill="#FFB800"><circle cx="8.469" cy="14.501" r="1.499"/><circle cx="8.469" cy="1.499" r="1.499"/><path d="M11.735 2.726c-.12.317-.284.609-.485.875L14.998 5.6l.002.865v3.928l-3.752 2.001c.202.265.367.556.487.874L16 10.994V5l-4.265-2.274zM2.002 5.599l3.705-1.976a3.459 3.459 0 0 1-.496-.869L1 5v5.994l4.211 2.246c.123-.316.293-.604.497-.868L2 10.394l.002-4.795z"/><path d="M7 6.294V5.16l-3 1.6V9.6l3 1.6v-1.133L5 9l.002-1.641zm6 1.665V6.76l-3-1.6v1.134l1.998 1.065L12 9l-2 1.067V11.2l3-1.6z"/></g></svg><svg width="18" height="18" viewBox="-1 -1 18 18" id="cz-y-#FFFFFF" x="164" y="18"><g fill="#FFF"><circle cx="8.469" cy="14.501" r="1.499"/><circle cx="8.469" cy="1.499" r="1.499"/><path d="M11.735 2.726c-.12.317-.284.609-.485.875L14.998 5.6l.002.865v3.928l-3.752 2.001c.202.265.367.556.487.874L16 10.994V5l-4.265-2.274zM2.002 5.599l3.705-1.976a3.459 3.459 0 0 1-.496-.869L1 5v5.994l4.211 2.246c.123-.316.293-.604.497-.868L2 10.394l.002-4.795z"/><path d="M7 6.294V5.16l-3 1.6V9.6l3 1.6v-1.133L5 9l.002-1.641zm6 1.665V6.76l-3-1.6v1.134l1.998 1.065L12 9l-2 1.067V11.2l3-1.6z"/></g></svg><svg id="database-y" width="18" height="18" viewBox="-42 42 18 18" x="164" y="36"><style>.bpst0{fill:#ffb800}</style><path class="bpst0" d="M-25.8 52c-.2-.3-.3-.6-.2-.8.1-.1.2-.2.4-.2s.4-.1.5-.3c.1-.2 0-.4-.1-.6-.1 0-1.2-1-2.6-.8-.4-.3-1.3-1-2.6-1.3-.8-.2-1.4-.2-2 .2-.4.2-.7.6-.8.8-.4 0-.7.1-.8.5-.3.8.6 1.3.9 1.4l.2.1c.1 0 .1.1.2.1.6.3.7.4.6.6-.1.3-.7 1.5.1 2.7.1.2.3.2.5.2s.3-.1.4-.3c.1-.2.3-.5.5-.7.2.4.6 1.1 1.1 1.5.7.7.7 1.2.8 2.1v.6h1v-.6c0-.9-.1-1.8-1.1-2.8-.6-.6-1.1-1.6-1.1-1.7-.1-.2-.3-.3-.5-.3-.4.1-.7.3-1 .5 0-.5.2-.9.2-.9v-.1c.4-1.2-.8-1.7-1.2-1.9-.1 0-.1 0-.2-.1l-.2-.1c.2-.1.3-.2.3-.4 0 0 .1-.4.5-.6.3-.2.7-.2 1.2 0 1.5.3 2.3 1.2 2.3 1.2.1.1.3.2.5.1.4-.1.8 0 1.1.1-.1.1-.2.2-.2.3-.1.3-.4.9.3 1.8.9 1.1.5 4 .2 5.4h1c.5-1.1 1-4.2-.2-5.7zm-5.5 4.7c-.8.2-1.7.3-2.7.3-3.3 0-6-1.1-6-2.5v-2.2c1.2 1 3.3 1.6 5.7 1.7 0-.4 0-.7.1-1-3.2 0-5.8-1.1-5.8-2.5v-2.2c.9.7 2.3 1.3 4 1.6v-1c-2.4-.3-4.1-1.3-4.1-2.4 0-1.4 2.7-2.5 6-2.5s6 1.1 6 2.5c0 .2 0 .4-.1.5.4.2.8.4 1.1.6v-1.1c0-1.9-3.1-3.5-7-3.5s-7 1.6-7 3.5v8c0 1.9 3.1 3.5 7 3.5 1.2 0 2.4-.2 3.4-.4-.1-.4-.3-.7-.6-.9z"/></svg><svg width="18" height="18" viewBox="-42 42 18 18" id="database-y-#FFFFFF" x="164" y="54"><style>.bqst0{fill:#fff}</style><path class="bqst0" d="M-25.8 52c-.2-.3-.3-.6-.2-.8.1-.1.2-.2.4-.2s.4-.1.5-.3c.1-.2 0-.4-.1-.6-.1 0-1.2-1-2.6-.8-.4-.3-1.3-1-2.6-1.3-.8-.2-1.4-.2-2 .2-.4.2-.7.6-.8.8-.4 0-.7.1-.8.5-.3.8.6 1.3.9 1.4l.2.1c.1 0 .1.1.2.1.6.3.7.4.6.6-.1.3-.7 1.5.1 2.7.1.2.3.2.5.2s.3-.1.4-.3c.1-.2.3-.5.5-.7.2.4.6 1.1 1.1 1.5.7.7.7 1.2.8 2.1v.6h1v-.6c0-.9-.1-1.8-1.1-2.8-.6-.6-1.1-1.6-1.1-1.7-.1-.2-.3-.3-.5-.3-.4.1-.7.3-1 .5 0-.5.2-.9.2-.9v-.1c.4-1.2-.8-1.7-1.2-1.9-.1 0-.1 0-.2-.1l-.2-.1c.2-.1.3-.2.3-.4 0 0 .1-.4.5-.6.3-.2.7-.2 1.2 0 1.5.3 2.3 1.2 2.3 1.2.1.1.3.2.5.1.4-.1.8 0 1.1.1-.1.1-.2.2-.2.3-.1.3-.4.9.3 1.8.9 1.1.5 4 .2 5.4h1c.5-1.1 1-4.2-.2-5.7zm-5.5 4.7c-.8.2-1.7.3-2.7.3-3.3 0-6-1.1-6-2.5v-2.2c1.2 1 3.3 1.6 5.7 1.7 0-.4 0-.7.1-1-3.2 0-5.8-1.1-5.8-2.5v-2.2c.9.7 2.3 1.3 4 1.6v-1c-2.4-.3-4.1-1.3-4.1-2.4 0-1.4 2.7-2.5 6-2.5s6 1.1 6 2.5c0 .2 0 .4-.1.5.4.2.8.4 1.1.6v-1.1c0-1.9-3.1-3.5-7-3.5s-7 1.6-7 3.5v8c0 1.9 3.1 3.5 7 3.5 1.2 0 2.4-.2 3.4-.4-.1-.4-.3-.7-.6-.9z"/></svg><svg id="dayudefense-y" width="18" height="18" viewBox="-42 42 18 18" x="164" y="72"><style>.brst0{fill:#ffb800}</style><path class="brst0" d="M-33.5 44h7.5v-1h-15v7s0 8 7.5 9c7.5-1 7.5-9 7.5-9v-4l-1 .5-6.5 4.5-6.5-4.5V44h6.5zm6.5 3.7V50c0 .3-.1 6.7-6 7.9v-6l6-4.2zm-7 4.2v6c-5.9-1.2-6-7.6-6-7.9v-2.3l6 4.2z"/></svg><svg width="18" height="18" viewBox="-42 42 18 18" id="dayudefense-y-#FFFFFF" x="164" y="90"><style>.bsst0{fill:#fff}</style><path class="bsst0" d="M-33.5 44h7.5v-1h-15v7s0 8 7.5 9c7.5-1 7.5-9 7.5-9v-4l-1 .5-6.5 4.5-6.5-4.5V44h6.5zm6.5 3.7V50c0 .3-.1 6.7-6 7.9v-6l6-4.2zm-7 4.2v6c-5.9-1.2-6-7.6-6-7.9v-2.3l6 4.2z"/></svg><svg id="dc-y" width="18" height="18" viewBox="-42 42 18 18" x="164" y="108"><style>.btst0{fill-rule:evenodd;clip-rule:evenodd;fill:#ffb800}</style><path class="btst0" d="M-27.5 52c-.7 0-1.2-.4-1.4-1h-9.2s0 .1-.1.1l4 4 .1-.1v-3h1v3.1c.6.2 1 .7 1 1.4 0 .8-.7 1.5-1.5 1.5s-1.5-.7-1.5-1.5c0-.2.1-.4.2-.6l-4-4c-.2.1-.4.2-.6.2-.8 0-1.5-.7-1.5-1.5s.7-1.5 1.5-1.5c.7 0 1.2.4 1.4 1h9.2s0-.1.1-.1l-4-4-.1.1V49h-1v-3.1c-.6-.2-1-.7-1-1.4 0-.8.7-1.5 1.5-1.5s1.5.7 1.5 1.5c0 .2-.1.4-.2.6l4 4c.2-.1.4-.2.6-.2.8 0 1.5.7 1.5 1.5s-.7 1.6-1.5 1.6z"/></svg><svg width="18" height="18" viewBox="-42 42 18 18" id="dc-y-#FFFFFF" x="164" y="126"><style>.bust0{fill-rule:evenodd;clip-rule:evenodd;fill:#fff}</style><path class="bust0" d="M-27.5 52c-.7 0-1.2-.4-1.4-1h-9.2s0 .1-.1.1l4 4 .1-.1v-3h1v3.1c.6.2 1 .7 1 1.4 0 .8-.7 1.5-1.5 1.5s-1.5-.7-1.5-1.5c0-.2.1-.4.2-.6l-4-4c-.2.1-.4.2-.6.2-.8 0-1.5-.7-1.5-1.5s.7-1.5 1.5-1.5c.7 0 1.2.4 1.4 1h9.2s0-.1.1-.1l-4-4-.1.1V49h-1v-3.1c-.6-.2-1-.7-1-1.4 0-.8.7-1.5 1.5-1.5s1.5.7 1.5 1.5c0 .2-.1.4-.2.6l4 4c.2-.1.4-.2.6-.2.8 0 1.5.7 1.5 1.5s-.7 1.6-1.5 1.6z"/></svg><svg id="distribute-y" width="18" height="18" viewBox="-42 42 18 18" y="152"><style>.bvst0{fill:#ffb800}</style><path class="bvst0" d="M-30.5 47l-5.5 3v6l5.5 3 5.5-3v-6l-5.5-3zm4.5 7.9l-2.1-1.2c-.1.3-.3.6-.5.9l2 1.1-3.9 2.1-3.9-2.1 2-1.1c-.2-.3-.4-.6-.5-.9l-2.1 1.2v-3.8l2.1 1.2c.1-.3.3-.6.5-.9l-2-1.1 3.9-2.1 3.9 2.1-2 1.1c.2.3.4.6.5.9l2.1-1.2v3.8zm-4.5-3.1c-.7 0-1.2.6-1.2 1.2 0 .7.6 1.2 1.2 1.2s1.2-.6 1.2-1.2c.1-.7-.5-1.2-1.2-1.2zm-9.5-5.3c0-1.4 2.7-2.5 6-2.5s6 1.1 6 2.5c0 .2 0 .3-.1.5h1.1v-.5c0-1.9-3.1-3.5-7-3.5s-7 1.6-7 3.5v8c0 1.4 1.6 2.6 4 3.2v-1c-1.8-.4-3-1.2-3-2.2v-2.2c.7.6 1.8 1.1 3 1.4v-1c-1.8-.4-3-1.2-3-2.2v-2.2c.7.6 1.8 1.1 3 1.4v-1c-1.8-.5-3-1.3-3-2.2z"/></svg><svg width="18" height="18" viewBox="-42 42 18 18" id="distribute-y-#FFFFFF" x="18" y="152"><style>.bwst0{fill:#fff}</style><path class="bwst0" d="M-30.5 47l-5.5 3v6l5.5 3 5.5-3v-6l-5.5-3zm4.5 7.9l-2.1-1.2c-.1.3-.3.6-.5.9l2 1.1-3.9 2.1-3.9-2.1 2-1.1c-.2-.3-.4-.6-.5-.9l-2.1 1.2v-3.8l2.1 1.2c.1-.3.3-.6.5-.9l-2-1.1 3.9-2.1 3.9 2.1-2 1.1c.2.3.4.6.5.9l2.1-1.2v3.8zm-4.5-3.1c-.7 0-1.2.6-1.2 1.2 0 .7.6 1.2 1.2 1.2s1.2-.6 1.2-1.2c.1-.7-.5-1.2-1.2-1.2zm-9.5-5.3c0-1.4 2.7-2.5 6-2.5s6 1.1 6 2.5c0 .2 0 .3-.1.5h1.1v-.5c0-1.9-3.1-3.5-7-3.5s-7 1.6-7 3.5v8c0 1.4 1.6 2.6 4 3.2v-1c-1.8-.4-3-1.2-3-2.2v-2.2c.7.6 1.8 1.1 3 1.4v-1c-1.8-.4-3-1.2-3-2.2v-2.2c.7.6 1.8 1.1 3 1.4v-1c-1.8-.5-3-1.3-3-2.2z"/></svg><svg id="dm-y" width="18" height="18" viewBox="-42 42 18 18" x="36" y="152"><style>.bxst0{fill:#ffb800}</style><path class="bxst0" d="M-25 54V44h-16v13h16v-1h-15v-8h14v6h1zm-15-7v-2h14v2h-14zm10 3h-1v-1h-1v1h-4v1h4v1h1v-1h1v-1zm-4 5v-1h4v-1h-4v-1h-1v1h-1v1h1v1h1z"/></svg><svg width="18" height="18" viewBox="-42 42 18 18" id="dm-y-#FFFFFF" x="54" y="152"><style>.byst0{fill:#fff}</style><path class="byst0" d="M-25 54V44h-16v13h16v-1h-15v-8h14v6h1zm-15-7v-2h14v2h-14zm10 3h-1v-1h-1v1h-4v1h4v1h1v-1h1v-1zm-4 5v-1h4v-1h-4v-1h-1v1h-1v1h1v1h1z"/></svg><svg id="dna-y" width="18" height="18" viewBox="-1 -1 18 18" x="72" y="152"><style>.bzst0{fill:#ffb800}</style><g id="bzXMLID_10_"><path id="bzXMLID_11_" class="bzst0" d="M10 9.1l-5.5 3-1.5-.8V9.5l4-2.2V6.2L3 8.4V4.9l4.7-2.6c.4.7 1.3.9 2 .5s1-1.3.6-2-1.3-1-2-.6c-.5.2-.8.7-.8 1.1l-5.4 3H2v7.6l2.6 1.3v-.1l5.4-2.9V9.1z"/><path id="bzXMLID_12_" class="bzst0" d="M16 11.4v-7l-3-1.5-.1.1L8 5.6v1.1L13.1 4 15 5v1.4l-4 2.2v1.1l4-2.2v3.4l-4.9 2.7c-.4-.5-1.2-.7-1.9-.4-.7.4-1 1.3-.6 2s1.3 1 2 .6c.5-.3.8-.8.8-1.3l5.6-3.1z"/></g></svg><svg width="18" height="18" viewBox="-1 -1 18 18" id="dna-y-#FFFFFF" x="90" y="152"><style>.cast0{fill:#fff}</style><path class="cast0" d="M10 9.1l-5.5 3-1.5-.8V9.5l4-2.2V6.2L3 8.4V4.9l4.7-2.6c.4.7 1.3.9 2 .5s1-1.3.6-2-1.3-1-2-.6c-.5.2-.8.7-.8 1.1l-5.4 3H2v7.6l2.6 1.3v-.1l5.4-2.9V9.1z"/><path class="cast0" d="M16 11.4v-7l-3-1.5-.1.1L8 5.6v1.1L13.1 4 15 5v1.4l-4 2.2v1.1l4-2.2v3.4l-4.9 2.7c-.4-.5-1.2-.7-1.9-.4-.7.4-1 1.3-.6 2s1.3 1 2 .6c.5-.3.8-.8.8-1.3l5.6-3.1z"/></svg><svg id="dts-y" viewBox="-1 -1 18 18" width="18" height="18" x="108" y="152"><style>.cbst0{fill:#ffb800}</style><path class="cbst0" d="M10.5 16c-3 0-5.5-2.5-5.5-5.5S7.5 5 10.5 5 16 7.5 16 10.5 13.5 16 10.5 16zm0-10C8 6 6 8 6 10.5S8 15 10.5 15s4.5-2 4.5-4.5S13 6 10.5 6zm-.5 7H9v-1H8v-1h5v1h-3v1zM8 9h3V8h1v1h1v1H8V9zM7 1C3.7 1 1 2.1 1 3.5c0 1 1.5 1.9 3.7 2.3-.3.3-.5.6-.6.9-1.3-.3-2.4-.8-3.1-1.4v2.2c0 .8.8 1.4 2.1 1.9-.1.3-.1.6-.1 1-.8-.3-1.5-.6-2-1.1v2.2c0 .9 1.1 1.6 2.7 2.1l.6 1.2C1.8 14.2 0 13 0 11.5v-8C0 1.6 3.1 0 7 0s7 1.6 7 3.5v.4c-.3-.2-.7-.3-1-.4C12.9 2.1 10.3 1 7 1z"/></svg><svg width="18" height="18" viewBox="-1 -1 18 18" id="dts-y-#FFFFFF" x="126" y="152"><style>.ccst0{fill:#fff}</style><path class="ccst0" d="M10.5 16c-3 0-5.5-2.5-5.5-5.5S7.5 5 10.5 5 16 7.5 16 10.5 13.5 16 10.5 16zm0-10C8 6 6 8 6 10.5S8 15 10.5 15s4.5-2 4.5-4.5S13 6 10.5 6zm-.5 7H9v-1H8v-1h5v1h-3v1zM8 9h3V8h1v1h1v1H8V9zM7 1C3.7 1 1 2.1 1 3.5c0 1 1.5 1.9 3.7 2.3-.3.3-.5.6-.6.9-1.3-.3-2.4-.8-3.1-1.4v2.2c0 .8.8 1.4 2.1 1.9-.1.3-.1.6-.1 1-.8-.3-1.5-.6-2-1.1v2.2c0 .9 1.1 1.6 2.7 2.1l.6 1.2C1.8 14.2 0 13 0 11.5v-8C0 1.6 3.1 0 7 0s7 1.6 7 3.5v.4c-.3-.2-.7-.3-1-.4C12.9 2.1 10.3 1 7 1z"/></svg><svg id="emr-y" viewBox="-1 -1 18 18" width="18" height="18" x="144" y="152"><style>.cdst0{fill-rule:evenodd;clip-rule:evenodd;fill:#ffb800}</style><path class="cdst0" d="M0 15v-2h1v1h14v-1h1v2H0zm11-4V6h3c.6 0 1 .4 1 1v1c0 .4 0 .8-.5.9L16 11h-1.6l-1.3-2H12v2h-1zm3-3V7h-2v1h2zm-9 3V6h1l1.5 3L9 6h1v5H9V8.6L7.5 11 6 8.5V11H5zm10-9H1v1H0V1h16v2h-1V2zM4 6v1H1v1h3v1H1v1h3v1H0V6h4z"/></svg><svg width="18" height="18" viewBox="-1 -1 18 18" id="emr-y-#FFFFFF" x="162" y="152"><style>.cest0{fill-rule:evenodd;clip-rule:evenodd;fill:#fff}</style><path class="cest0" d="M0 15v-2h1v1h14v-1h1v2H0zm11-4V6h3c.6 0 1 .4 1 1v1c0 .4 0 .8-.5.9L16 11h-1.6l-1.3-2H12v2h-1zm3-3V7h-2v1h2zm-9 3V6h1l1.5 3L9 6h1v5H9V8.6L7.5 11 6 8.5V11H5zm10-9H1v1H0V1h16v2h-1V2zM4 6v1H1v1h3v1H1v1h3v1H0V6h4z"/></svg><svg id="en-logo" viewBox="-1 -1 130 22" width="130" height="22" y="26"><style>.cfst0{fill:#fff}</style><g id="cfXMLID_1_"><path id="cfXMLID_24_" class="cfst0" d="M11 7.6c.5-2.5 2.7-4.3 5.3-4.3 2.2 0 4.1 1.3 4.9 3.2h.1c.6-.2 1.4-.3 2.2-.2.1 0 .1 0 .1-.1-1.1-3-3.9-5.1-7.3-5.1-3.8 0-7 2.8-7.6 6.5-1.2.1-2.3.7-3.1 1.6-2.2 2.3-2.2 5.9.1 8.1.9.9 2 1.4 3.2 1.6.5.1 1.1.1 1.6.1h12.9c1.3-.1 2.6-.6 3.6-1.6 2.3-2.2 2.3-5.9.1-8.1-1-1.1-2.5-1.7-4.1-1.7-1.4 0-2.6.5-3.6 1.3-.5.4-.9.8-1.5 1.4-.2.2-4.1 4-6.7 6.5H9.9c-1.3 0-2.1-.5-2.5-1-1.4-1.4-1.4-3.6-.1-5 .6-.6 1.5-1 2.5-1 .6 0 1.4.2 2.4.9.4.4 1.4 1.2 1.9 1.6h.1l1.5-1.5v-.1c-.7-.7-1.8-1.6-2.4-2.1-.8-.5-1.5-.8-2.3-1zm14.4 8.1c-.4.4-1.2.9-2.5 1h-8.5c2.5-2.5 4.7-4.6 5-4.8.2-.2.7-.7 1.2-1.1 1-.9 1.9-1.1 2.5-1 1 0 1.9.4 2.5 1 1.2 1.3 1.2 3.5-.2 4.9z"/><g id="cfXMLID_3_"><path id="cfXMLID_23_" class="cfst0" d="M96.3 12.5c0-.1-.1-.1-.1-.1-.8.9-2.1 1.7-3.7 1.7-2.4 0-3.9-1.6-3.9-4.2s1.5-4.2 3.8-4.2c1.4 0 2.8.7 3.7 1.5 0 0 .1 0 .1-.1V5.9c-1-.9-2.4-1.4-3.8-1.4-1.5 0-2.7.5-3.6 1.5-.9 1-1.4 2.3-1.4 3.9 0 3.2 2 5.4 5.1 5.4 1.5 0 2.9-.5 3.8-1.4v-1.4z"/><path id="cfXMLID_22_" class="cfst0" d="M31.4 4.8v1.1H35v9.2h1.2V5.9h3.6V4.8z"/><path id="cfXMLID_19_" class="cfst0" d="M123.7 8.3c-.6-.7-1.7-.9-2.5-.9-1 0-1.9.4-2.6 1.1-.7.7-1 1.7-1 2.9 0 2.8 1.8 4 3.6 4 1.1 0 1.9-.4 2.4-1v.9h1.2V4.8h-1.2v3.5zm-.1 3c0 1.4-.8 2.8-2.4 2.8-1.2 0-2.4-.9-2.4-2.8 0-1.4.7-2.9 2.4-2.9 1.8.1 2.4 1.6 2.4 2.9z"/><path id="cfXMLID_18_" class="cfst0" d="M98 4.8h1.2v10.3H98z"/><path id="cfXMLID_17_" class="cfst0" d="M62 13.2c0-.1-.1-.1-.1-.1-.8.7-2 1-2.5 1-1.7 0-2.7-1.1-2.7-2.8 0-1.7 1.1-2.8 2.7-2.8.5 0 1.6.1 2.5.9 0 0 .1 0 .1-.1V8.2c-.5-.3-1.6-.8-2.7-.8-2.3 0-3.8 1.6-3.8 4s1.5 4 3.8 4c.9 0 1.9-.3 2.7-.8v-1.4z"/><path id="cfXMLID_14_" class="cfst0" d="M45.8 12.9c0-.1-.1-.1-.1 0-.5.7-1.9 1.3-2.7 1.3-.8 0-1.5-.3-1.9-.7-.5-.5-.7-1.2-.7-1.9h5.8v-.1c0-1.6-.3-2.6-1-3.3-.6-.6-1.4-.9-2.4-.9-2.2 0-3.6 1.5-3.6 3.9.1 2.5 1.5 4 3.8 4 1.1 0 2-.4 2.8-1.1v-1.2zm-.8-2.3h-4.6c0-.7.3-1.2.8-1.6.4-.3.9-.5 1.5-.5 1.4-.1 2.3.8 2.3 2.1z"/><path id="cfXMLID_13_" class="cfst0" d="M114.9 11.4c0 2.1-1.2 2.8-2.2 2.8-1 0-2-.7-2-1.9V7.5h-1.2v4.7c0 1.8 1.3 3.1 3.1 3.1 1 0 1.8-.3 2.3-1v.8h1.1V7.5h-1.2v3.9z"/><path id="cfXMLID_12_" class="cfst0" d="M51 7.3c-.9 0-1.7.3-2.3.9v-.7h-1.2v7.6h1.2v-4.3c0-.7.2-1.3.6-1.7.4-.4 1-.6 1.6-.6.9 0 1.9.6 1.9 2v4.7H54v-4.7c0-.9-.3-1.7-.9-2.3-.4-.6-1.2-.9-2.1-.9z"/><path id="cfXMLID_9_" class="cfst0" d="M69.8 12.9c0-.1-.1-.1-.1 0-.5.7-1.9 1.3-2.7 1.3-.8 0-1.5-.3-1.9-.7-.5-.5-.7-1.2-.7-1.9h5.8v-.1c0-1.6-.3-2.6-1-3.3-.6-.6-1.4-.9-2.4-.9-2.2 0-3.6 1.5-3.6 3.9.1 2.5 1.5 4 3.8 4 1.1 0 2-.4 2.8-1.1v-1.2zm-.9-2.3h-4.6c0-.7.3-1.2.8-1.6.4-.3.9-.5 1.5-.5 1.4-.1 2.3.8 2.3 2.1z"/><path id="cfXMLID_8_" class="cfst0" d="M74.9 7.3c-.9 0-1.7.3-2.3.9v-.7h-1.2v7.6h1.2v-4.3c0-.7.2-1.3.6-1.7.4-.4 1-.6 1.6-.6.9 0 1.9.6 1.9 2v4.7H78v-4.7c0-.9-.3-1.7-.9-2.3-.5-.6-1.3-.9-2.2-.9z"/><path id="cfXMLID_7_" class="cfst0" d="M81.9 15.2c.7 0 1.6-.4 1.6-.4v-1.1c0-.1-.1-.1-.1-.1-.3.1-.9.3-1.3.4h-.3c-.1 0-.1-.1-.1-.2V8.6h2.2V7.5h-2.2v-2h-1.2v2h-1.2v1.1h1.2v5.2c0 .4.1.8.4 1 .2.3.5.4 1 .4z"/><path id="cfXMLID_4_" class="cfst0" d="M104.5 7.4c-2.2 0-3.7 1.6-3.7 4s1.5 4 3.7 4 3.7-1.6 3.7-4-1.5-4-3.7-4zm-2.5 3.9c0-1.7 1-2.8 2.5-2.8s2.5 1.1 2.5 2.8c0 1.7-1 2.8-2.5 2.8S102 13 102 11.3z"/></g></g></svg><svg id="face-y" width="18" height="18" viewBox="-42 42 18 18" x="182" y="18"><style>.cgst0{fill-rule:evenodd;clip-rule:evenodd;fill:#ffb800}</style><path class="cgst0" d="M-33 51c1.1 0 2-.9 2-2s-.9-2-2-2-2 .9-2 2 .9 2 2 2zm0-3c.6 0 1 .4 1 1s-.4 1-1 1-1-.4-1-1 .4-1 1-1zm-6-3h3v-1h-4v4h1v-3zm0 9h-1v4h4v-1h-3v-3zm9-10v1h3v3h1v-4h-4zm3 13h-3v1h4v-4h-1v3zm-2-2v-1c0-1.1-.9-2-2-2h-4c-1.1 0-2 .9-2 2v1h1v-1c0-.5.4-1 1-1h4c.5 0 1 .4 1 1v1h1z"/></svg><svg width="18" height="18" viewBox="-42 42 18 18" id="face-y-#FFFFFF" x="182" y="36"><style>.chst0{fill-rule:evenodd;clip-rule:evenodd;fill:#fff}</style><path class="chst0" d="M-33 51c1.1 0 2-.9 2-2s-.9-2-2-2-2 .9-2 2 .9 2 2 2zm0-3c.6 0 1 .4 1 1s-.4 1-1 1-1-.4-1-1 .4-1 1-1zm-6-3h3v-1h-4v4h1v-3zm0 9h-1v4h4v-1h-3v-3zm9-10v1h3v3h1v-4h-4zm3 13h-3v1h4v-4h-1v3zm-2-2v-1c0-1.1-.9-2-2-2h-4c-1.1 0-2 .9-2 2v1h1v-1c0-.5.4-1 1-1h4c.5 0 1 .4 1 1v1h1z"/></svg><svg width="18" height="18" viewBox="-1 -1 18 18" id="gaap-y" x="182" y="54"><path d="M7 2.903V6h2.454L10 5H8V2.913A1.496 1.496 0 0 0 7.516 0a1.5 1.5 0 0 0-1.252 2.325L2 10h1l3.951-7.112c.016.007.033.009.049.015zM13 5h-1l-3.946 7.104c-.018-.007-.036-.011-.054-.017V9H5.546L5 10h2v2.097A1.496 1.496 0 0 0 7.516 15a1.5 1.5 0 0 0 1.234-2.35L13 5z" fill-rule="evenodd" clip-rule="evenodd" fill="#FFB800"/></svg><svg width="18" height="18" viewBox="-1 -1 18 18" id="gaap-y-#FFFFFF" x="182" y="72">&amp;lt;!ENTITY ns_ai &amp;quot;http://ns.adobe.com/AdobeIllustrator/10.0/&amp;quot;&amp;gt;&amp;lt;!ENTITY ns_graphs &amp;quot;http://ns.adobe.com/Graphs/1.0/&amp;quot;&amp;gt;&amp;lt;!ENTITY ns_vars &amp;quot;http://ns.adobe.com/Variables/1.0/&amp;quot;&amp;gt;&amp;lt;!ENTITY ns_imrep &amp;quot;http://ns.adobe.com/ImageReplacement/1.0/&amp;quot;&amp;gt;&amp;lt;!ENTITY ns_sfw &amp;quot;http://ns.adobe.com/SaveForWeb/1.0/&amp;quot;&amp;gt;&amp;lt;!ENTITY ns_custom &amp;quot;http://ns.adobe.com/GenericCustomNamespace/1.0/&amp;quot;&amp;gt;&amp;lt;!ENTITY ns_adobe_xpath &amp;quot;http://ns.adobe.com/XPath/1.0/&amp;quot;&amp;gt;]&amp;gt;<path d="M7 2.903V6h2.454L10 5H8V2.913A1.496 1.496 0 0 0 7.516 0a1.5 1.5 0 0 0-1.252 2.325L2 10h1l3.951-7.112c.016.007.033.009.049.015zM13 5h-1l-3.946 7.104c-.018-.007-.036-.011-.054-.017V9H5.546L5 10h2v2.097A1.496 1.496 0 0 0 7.516 15a1.5 1.5 0 0 0 1.234-2.35L13 5z" fill-rule="evenodd" clip-rule="evenodd" fill="#FFF"/></svg><svg id="gvoice-y" width="18" height="18" viewBox="-1 -1 18 18" x="182" y="90"><style>.ckst0{fill-rule:evenodd;clip-rule:evenodd;fill:#ffb800}</style><path class="ckst0" d="M8 13c2.2 0 4-1.9 4-4.2V4.2C12 1.9 10.2 0 8 0S4 1.9 4 4.2v4.6C4 11.1 5.8 13 8 13zM5 9h2V8H5V7h2V6H5V5h2V4H5v-.2C5 2.2 6.4 1 8 1c1.7 0 3 1.3 3 2.8V4H9v1h2v1H9v1h2v1H9v1h2v.2c0 1.5-1.3 2.8-3 2.8s-3-1.3-3-2.8V9zm8-1v1.3c0 2.6-2.2 4.7-5 4.7s-5-2.1-5-4.7V8H2v1.1C2 12.4 4.7 15 8 15s6-2.6 6-5.9V8h-1z"/></svg><svg width="18" height="18" viewBox="-1 -1 18 18" id="gvoice-y-#FFFFFF" x="182" y="108"><style>.clst0{fill-rule:evenodd;clip-rule:evenodd;fill:#fff}</style><path class="clst0" d="M8 13c2.2 0 4-1.9 4-4.2V4.2C12 1.9 10.2 0 8 0S4 1.9 4 4.2v4.6C4 11.1 5.8 13 8 13zM5 9h2V8H5V7h2V6H5V5h2V4H5v-.2C5 2.2 6.4 1 8 1c1.7 0 3 1.3 3 2.8V4H9v1h2v1H9v1h2v1H9v1h2v.2c0 1.5-1.3 2.8-3 2.8s-3-1.3-3-2.8V9zm8-1v1.3c0 2.6-2.2 4.7-5 4.7s-5-2.1-5-4.7V8H2v1.1C2 12.4 4.7 15 8 15s6-2.6 6-5.9V8h-1z"/></svg><svg id="hbase-y" width="18" height="18" viewBox="-42 42 18 18" x="182" y="126"><style>.cmst0{fill:#ffb800}</style><path class="cmst0" d="M-33 49h-1v9h1v-4h6v4h1v-5h-7v-4zm6 0v3h1v-3h-1zm-13-2.5c0-1.4 2.7-2.5 6-2.5s6 1.1 6 2.5c0 .6-.5 1.1-1.2 1.5h2.2v-1.5c0-1.9-3.1-3.5-7-3.5s-7 1.6-7 3.5v8c0 1.8 2.6 3.2 6 3.5v-1c-2.8-.2-5-1.2-5-2.5v-2.2c1.1.9 2.9 1.5 5 1.7v-1c-2.8-.2-5-1.2-5-2.5v-2.2c1.1.9 2.9 1.5 5 1.7v-1c-2.8-.2-5-1.3-5-2.5z"/></svg><svg width="18" height="18" viewBox="-42 42 18 18" id="hbase-y-#FFFFFF" x="182" y="144"><style>.cnst0{fill:#fff}</style><path class="cnst0" d="M-33 49h-1v9h1v-4h6v4h1v-5h-7v-4zm6 0v3h1v-3h-1zm-13-2.5c0-1.4 2.7-2.5 6-2.5s6 1.1 6 2.5c0 .6-.5 1.1-1.2 1.5h2.2v-1.5c0-1.9-3.1-3.5-7-3.5s-7 1.6-7 3.5v8c0 1.8 2.6 3.2 6 3.5v-1c-2.8-.2-5-1.2-5-2.5v-2.2c1.1.9 2.9 1.5 5 1.7v-1c-2.8-.2-5-1.2-5-2.5v-2.2c1.1.9 2.9 1.5 5 1.7v-1c-2.8-.2-5-1.3-5-2.5z"/></svg><svg id="hei-load-y" width="18" height="18" viewBox="-42 42 18 18" y="170"><style>.cost0{fill:#ffb800}</style><path class="cost0" d="M-35 50h-3.1c-.2-.6-.8-1-1.4-1-.8 0-1.5.7-1.5 1.5s.7 1.5 1.5 1.5c.7 0 1.2-.4 1.4-1h3.1v6h4v-1h-3v-5h3v-1h-3v-5h3v-1h-4v6zm7.5-4c.8 0 1.5-.7 1.5-1.5s-.7-1.5-1.5-1.5-1.5.7-1.5 1.5.7 1.5 1.5 1.5zm0 3c-.8 0-1.5.7-1.5 1.5s.7 1.5 1.5 1.5 1.5-.7 1.5-1.5-.7-1.5-1.5-1.5zm0 6c-.8 0-1.5.7-1.5 1.5s.7 1.5 1.5 1.5 1.5-.7 1.5-1.5-.7-1.5-1.5-1.5z"/></svg><svg width="18" height="18" viewBox="-42 42 18 18" id="hei-load-y-#FFFFFF" x="18" y="170"><style>.cpst0{fill:#fff}</style><path class="cpst0" d="M-35 50h-3.1c-.2-.6-.8-1-1.4-1-.8 0-1.5.7-1.5 1.5s.7 1.5 1.5 1.5c.7 0 1.2-.4 1.4-1h3.1v6h4v-1h-3v-5h3v-1h-3v-5h3v-1h-4v6zm7.5-4c.8 0 1.5-.7 1.5-1.5s-.7-1.5-1.5-1.5-1.5.7-1.5 1.5.7 1.5 1.5 1.5zm0 3c-.8 0-1.5.7-1.5 1.5s.7 1.5 1.5 1.5 1.5-.7 1.5-1.5-.7-1.5-1.5-1.5zm0 6c-.8 0-1.5.7-1.5 1.5s.7 1.5 1.5 1.5 1.5-.7 1.5-1.5-.7-1.5-1.5-1.5z"/></svg><svg id="hei-private-y" width="18" height="18" viewBox="-42 42 18 18" x="36" y="170"><style>.cqst0{fill-rule:evenodd;clip-rule:evenodd;fill:#ffb800}</style><path class="cqst0" d="M-29 49v-2c-.3-2.2-2.2-4-4.5-4s-4.2 1.8-4.5 4v2h-2v10h13V49h-2zm-8-1.5c0-1.9 1.6-3.5 3.5-3.5s3.5 1.6 3.5 3.5V49h-7v-1.5zm9 10.5h-11v-8h11v8zm-4-2h-1v-4h1v-1h-3v1h1v4h-1v1h3v-1z"/></svg><svg width="18" height="18" viewBox="-42 42 18 18" id="hei-private-y-#FFFFFF" x="54" y="170"><style>.crst0{fill-rule:evenodd;clip-rule:evenodd;fill:#fff}</style><path class="crst0" d="M-29 49v-2c-.3-2.2-2.2-4-4.5-4s-4.2 1.8-4.5 4v2h-2v10h13V49h-2zm-8-1.5c0-1.9 1.6-3.5 3.5-3.5s3.5 1.6 3.5 3.5V49h-7v-1.5zm9 10.5h-11v-8h11v8zm-4-2h-1v-4h1v-1h-3v1h1v4h-1v1h3v-1z"/></svg><svg id="heishi-y" width="18" height="18" viewBox="-42 42 18 18" x="72" y="170"><style>.csst0{fill:#ffb800}</style><path class="csst0" d="M-30.5 47l-5.5 3v6l5.5 3 5.5-3v-1.1l-1 .5-4.5 2.5-4.5-2.5v-4.8l4.5-2.5 4.5 2.5-4.5 2.5v1.1l4.5-2.5 1-.5V50l-5.5-3zm4.5 6l-3 1.6v1.1l3-1.6 1-.5v-1.1l-1 .5zm-14-6.5c0-1.4 2.7-2.5 6-2.5s6 1.1 6 2.5c0 .2 0 .3-.1.5h1.1v-.5c0-1.9-3.1-3.5-7-3.5s-7 1.6-7 3.5v8c0 1.4 1.6 2.6 4 3.2v-1c-1.8-.4-3-1.2-3-2.2v-2.2c.7.6 1.8 1.1 3 1.4v-1c-1.8-.4-3-1.2-3-2.2v-2.2c.7.6 1.8 1.1 3 1.4v-1c-1.8-.5-3-1.3-3-2.2z"/></svg><svg width="18" height="18" viewBox="-42 42 18 18" id="heishi-y-#FFFFFF" x="90" y="170"><style>.ctst0{fill:#fff}</style><path class="ctst0" d="M-30.5 47l-5.5 3v6l5.5 3 5.5-3v-1.1l-1 .5-4.5 2.5-4.5-2.5v-4.8l4.5-2.5 4.5 2.5-4.5 2.5v1.1l4.5-2.5 1-.5V50l-5.5-3zm4.5 6l-3 1.6v1.1l3-1.6 1-.5v-1.1l-1 .5zm-14-6.5c0-1.4 2.7-2.5 6-2.5s6 1.1 6 2.5c0 .2 0 .3-.1.5h1.1v-.5c0-1.9-3.1-3.5-7-3.5s-7 1.6-7 3.5v8c0 1.4 1.6 2.6 4 3.2v-1c-1.8-.4-3-1.2-3-2.2v-2.2c.7.6 1.8 1.1 3 1.4v-1c-1.8-.4-3-1.2-3-2.2v-2.2c.7.6 1.8 1.1 3 1.4v-1c-1.8-.5-3-1.3-3-2.2z"/></svg><svg width="18" height="18" viewBox="-1 -1 18 18" id="ico-set-menu" x="108" y="170"><path fill="#fff" d="M8 3c2.757 0 5 2.243 5 5s-2.243 5-5 5-5-2.243-5-5 2.243-5 5-5m0-1a6 6 0 1 0 0 12A6 6 0 0 0 8 2z"/><path fill="#fff" d="M8 7c.551 0 1 .449 1 1s-.449 1-1 1-1-.449-1-1 .449-1 1-1m0-1a2 2 0 1 0-.001 3.999A2 2 0 0 0 8 6zM7 13.91V16h2v-2.09c-.326.055-.659.09-1 .09s-.674-.035-1-.09zM9 2.09V0H7v2.09c.326-.055.659-.09 1-.09s.674.035 1 .09zM13.91 9H16V7h-2.09c.055.326.09.659.09 1s-.035.674-.09 1zM2.09 7H0v2h2.09C2.035 8.674 2 8.341 2 8s.035-.674.09-1zm10.797-2.473l1.477-1.477-1.414-1.414-1.477 1.477a6.007 6.007 0 0 1 1.414 1.414zm-9.774 6.946L1.636 12.95l1.414 1.414 1.477-1.477a6.007 6.007 0 0 1-1.414-1.414zm8.36 1.414l1.477 1.477 1.414-1.414-1.477-1.477a6.007 6.007 0 0 1-1.414 1.414zM4.527 3.113L3.05 1.636 1.636 3.05l1.477 1.477a6.007 6.007 0 0 1 1.414-1.414z"/></svg><svg width="18" height="18" viewBox="-1 -1 18 18" id="ico-set-menu-hover" x="126" y="170"><path fill="#F5B317" d="M8 3c2.757 0 5 2.243 5 5s-2.243 5-5 5-5-2.243-5-5 2.243-5 5-5m0-1a6 6 0 1 0 0 12A6 6 0 0 0 8 2z"/><path fill="#F5B317" d="M8 7c.551 0 1 .449 1 1s-.449 1-1 1-1-.449-1-1 .449-1 1-1m0-1a2 2 0 1 0-.001 3.999A2 2 0 0 0 8 6zM7 13.91V16h2v-2.09c-.326.055-.659.09-1 .09s-.674-.035-1-.09zM9 2.09V0H7v2.09c.326-.055.659-.09 1-.09s.674.035 1 .09zM13.91 9H16V7h-2.09c.055.326.09.659.09 1s-.035.674-.09 1zM2.09 7H0v2h2.09C2.035 8.674 2 8.341 2 8s.035-.674.09-1zm10.797-2.473l1.477-1.477-1.414-1.414-1.477 1.477a6.007 6.007 0 0 1 1.414 1.414zm-9.774 6.946L1.636 12.95l1.414 1.414 1.477-1.477a6.007 6.007 0 0 1-1.414-1.414zm8.36 1.414l1.477 1.477 1.414-1.414-1.477-1.477a6.007 6.007 0 0 1-1.414 1.414zM4.527 3.113L3.05 1.636 1.636 3.05l1.477 1.477a6.007 6.007 0 0 1 1.414-1.414z"/></svg><svg id="interact-y" width="18" height="18" viewBox="-42 42 18 18" x="144" y="170"><style>.cwst0{fill:#ffb800}</style><path class="cwst0" d="M-34 49.3v3.3c0 .2.3.4.5.3l2.7-1.7c.2-.1.2-.4 0-.5l-2.7-1.7c-.2-.1-.5.1-.5.3z"/><path class="cwst0" d="M-38 45h10.6l.4.4V54h1v-9l-1-1h-14v.5l3 1.5zm10 11v1h-10.6l-.4-.4V48h-1v9l1 1h14v-.5z"/></svg><svg width="18" height="18" viewBox="-42 42 18 18" id="interact-y-#FFFFFF" x="162" y="170"><style>.cxst0{fill:#fff}</style><path class="cxst0" d="M-34 49.3v3.3c0 .2.3.4.5.3l2.7-1.7c.2-.1.2-.4 0-.5l-2.7-1.7c-.2-.1-.5.1-.5.3z"/><path class="cxst0" d="M-38 45h10.6l.4.4V54h1v-9l-1-1h-14v.5l3 1.5zm10 11v1h-10.6l-.4-.4V48h-1v9l1 1h14v-.5z"/></svg><svg id="ir-y" viewBox="-1 -1 18 18" width="18" height="18" x="180" y="170"><style>.cyst0{fill:#ffb800}</style><path class="cyst0" d="M13.5 9c-.3 0-.6-.1-.9-.3l-3.8 3.2c.1.2.2.4.2.6 0 .8-.7 1.5-1.5 1.5S6 13.3 6 12.5c0-.2.1-.4.2-.6L2.4 8.7c-.3.2-.6.3-.9.3C.7 9 0 8.3 0 7.5S.7 6 1.5 6c.3 0 .6.1.9.3l3.8-3.2c-.1-.2-.2-.4-.2-.6C6 1.7 6.7 1 7.5 1S9 1.7 9 2.5c0 .2-.1.4-.2.6l3.8 3.2c.3-.2.6-.3.9-.3.8 0 1.5.7 1.5 1.5S14.3 9 13.5 9zM2.9 7.2c.1.1.1.2.1.3 0 .1 0 .2-.1.3l3.9 3.3h.1V3.9h-.1L2.9 7.2zm9.2 0l-4-3.4H8V11h.1L12 7.7v-.2c0-.1 0-.2.1-.3z"/></svg><svg width="18" height="18" viewBox="-1 -1 18 18" id="ir-y-#FFFFFF" x="200"><style>.czst0{fill:#fff}</style><path class="czst0" d="M13.5 9c-.3 0-.6-.1-.9-.3l-3.8 3.2c.1.2.2.4.2.6 0 .8-.7 1.5-1.5 1.5S6 13.3 6 12.5c0-.2.1-.4.2-.6L2.4 8.7c-.3.2-.6.3-.9.3C.7 9 0 8.3 0 7.5S.7 6 1.5 6c.3 0 .6.1.9.3l3.8-3.2c-.1-.2-.2-.4-.2-.6C6 1.7 6.7 1 7.5 1S9 1.7 9 2.5c0 .2-.1.4-.2.6l3.8 3.2c.3-.2.6-.3.9-.3.8 0 1.5.7 1.5 1.5S14.3 9 13.5 9zM2.9 7.2c.1.1.1.2.1.3 0 .1 0 .2-.1.3l3.9 3.3h.1V3.9h-.1L2.9 7.2zm9.2 0l-4-3.4H8V11h.1L12 7.7v-.2c0-.1 0-.2.1-.3z"/></svg><svg id="live-y" width="18" height="18" viewBox="-42 42 18 18" x="200" y="18"><style>.dast0{fill:#ffb800}</style><path class="dast0" d="M-26 44h-14v14h14V47h-1v7h-12v-9h13v-1zm-1 11v2h-12v-2h12zm-7-7.1v3.3c0 .2.3.4.5.3l2.7-1.7c.2-.1.2-.4 0-.5l-2.7-1.7c-.2-.1-.5 0-.5.3z"/></svg><svg width="18" height="18" viewBox="-42 42 18 18" id="live-y-#FFFFFF" x="200" y="36"><style>.dbst0{fill:#fff}</style><path class="dbst0" d="M-26 44h-14v14h14V47h-1v7h-12v-9h13v-1zm-1 11v2h-12v-2h12zm-7-7.1v3.3c0 .2.3.4.5.3l2.7-1.7c.2-.1.2-.4 0-.5l-2.7-1.7c-.2-.1-.5 0-.5.3z"/></svg><svg id="load-y" width="18" height="18" viewBox="-42 42 18 18" x="200" y="54"><style>.dcst0{fill-rule:evenodd;clip-rule:evenodd;fill:#ffb800}</style><path class="dcst0" d="M-39 57h7v-1h-6v-5h6v-1h-6v-5h6v-1h-7v13zm10.5-11c.8 0 1.5-.7 1.5-1.5s-.7-1.5-1.5-1.5-1.5.7-1.5 1.5.7 1.5 1.5 1.5zm0 3c-.8 0-1.5.7-1.5 1.5s.7 1.5 1.5 1.5 1.5-.7 1.5-1.5-.7-1.5-1.5-1.5zm0 6c-.8 0-1.5.7-1.5 1.5s.7 1.5 1.5 1.5 1.5-.7 1.5-1.5-.7-1.5-1.5-1.5z"/></svg><svg width="18" height="18" viewBox="-42 42 18 18" id="load-y-#FFFFFF" x="200" y="72"><style>.ddst0{fill-rule:evenodd;clip-rule:evenodd;fill:#fff}</style><path class="ddst0" d="M-39 57h7v-1h-6v-5h6v-1h-6v-5h6v-1h-7v13zm10.5-11c.8 0 1.5-.7 1.5-1.5s-.7-1.5-1.5-1.5-1.5.7-1.5 1.5.7 1.5 1.5 1.5zm0 3c-.8 0-1.5.7-1.5 1.5s.7 1.5 1.5 1.5 1.5-.7 1.5-1.5-.7-1.5-1.5-1.5zm0 6c-.8 0-1.5.7-1.5 1.5s.7 1.5 1.5 1.5 1.5-.7 1.5-1.5-.7-1.5-1.5-1.5z"/></svg><svg id="log-y" width="18" height="18" viewBox="-42 42 18 18" x="200" y="90"><style>.dest0{fill:#ffb800}</style><path class="dest0" d="M-30 51h-6v1h6v-1zm1-8h-8v3h8v-3zm-1 2h-6v-1h6v1zm2-1v1h1v12h-12V45h1v-1h-2v14h14V44h-2zm-2 5h-6v1h6v-1zm-6 5h6v-1h-6v1z"/></svg><svg width="18" height="18" viewBox="-42 42 18 18" id="log-y-#FFFFFF" x="200" y="108"><style>.dfst0{fill:#fff}</style><path class="dfst0" d="M-30 51h-6v1h6v-1zm1-8h-8v3h8v-3zm-1 2h-6v-1h6v1zm2-1v1h1v12h-12V45h1v-1h-2v14h14V44h-2zm-2 5h-6v1h6v-1zm-6 5h6v-1h-6v1z"/></svg><svg id="logo" viewBox="-1 -1 86 24" width="86" height="24" y="74"><style>.dgst0{fill:#fff}</style><g id="dgXMLID_26_"><g id="dgXMLID_43_"><path id="dgXMLID_46_" class="dgst0" d="M28.4 10c-1.3-1.3-3-2.1-5-2.1-1.7 0-3.2.6-4.4 1.6-.6.5-1.1 1-1.9 1.7C16.6 11.6 6 21.9 6 21.9c.6.1 1.4.1 2 .1h13.3c1 0 1.7 0 2.4-.1 1.6-.1 3.2-.7 4.5-2 2.8-2.7 2.9-7.1.2-9.9zm-2.1 8c-.5.5-1.5 1.1-3.1 1.2H12.7c3.1-3 5.8-5.6 6.1-5.9.3-.3.9-.9 1.5-1.4 1.2-1.1 2.3-1.3 3-1.3 1.2 0 2.3.5 3.1 1.3 1.6 1.7 1.6 4.4-.1 6.1z"/><path id="dgXMLID_45_" class="dgst0" d="M11.2 9.4C10 8.4 8.6 7.9 7 7.9c-2 0-3.7.8-5 2.1-2.7 2.8-2.7 7.2.1 10 1.1 1.1 2.5 1.7 3.9 1.9l2.7-2.6H7.1c-1.6-.1-2.5-.7-3.1-1.2-1.7-1.7-1.7-4.4-.1-6.1.8-.8 1.9-1.3 3.1-1.3.7 0 1.8.2 2.9 1.2.6.5 1.8 1.6 2.3 2l2-1.9c-.8-.9-2.2-2.1-3-2.6z"/><path id="dgXMLID_44_" class="dgst0" d="M24.1 6.3C22.8 2.6 19.3 0 15.2 0c-4.7 0-8.6 3.5-9.3 8 .3-.1.7-.1 1.1-.1.6 0 1.1.1 1.6.2.6-3 3.3-5.3 6.5-5.3 2.7 0 5 1.6 6.1 3.9h.1c.8-.2 1.7-.3 2.7-.3.1 0 .1 0 .1-.1z"/></g><g id="dgXMLID_27_"><path id="dgXMLID_40_" class="dgst0" d="M65 3.7h-9V5h2.7v4.7h-3.1V11h3.1v8h1.4v-7.9h3.4v7.8h2.7v-1.3H65V3.7zm-4.8 6.1V5h3.4v4.7h-3.4z"/><path id="dgXMLID_39_" class="dgst0" d="M40.2 15.4h7.1v1.3h-7.1z"/><path id="dgXMLID_35_" class="dgst0" d="M35.4 13c0 2.4-.2 4.1-.6 5.7 0 .1 0 .2.1.2h1.3c.4-2.2.5-4 .5-5.3h1.8v4h-1.3c-.1 0-.1 0-.1.1l.4 1.2h2.3V3.8h-4.4V13zm1.3-.6V9.3h1.8v3.1h-1.8zm1.8-7.3v3.1h-1.8V5.1h1.8z"/><path id="dgXMLID_32_" class="dgst0" d="M47.8 9h1.7V7.9h-5.1c.2-.4.3-.8.4-1.2h4.3V5.5h-1.3c.2-.7.5-1.6.5-1.6 0-.1 0-.1-.1-.1h-1.1l-.5 1.7H45c.1-.7.3-1.4.4-2.3 0-.1 0-.1-.1-.1H44c0 .9-.1 1.7-.3 2.4H43l-.5-1.7h-1.1c-.1 0-.1 0-.1.1 0 0 .3.9.5 1.6h-1.2v1.2h2.9c-.1.4-.3.8-.5 1.2h-2.7V9h2.1c-.8 1.2-1.7 1.7-2.1 1.9v1.3c0 .1.1.1.3 0 .4-.2.8-.5 1.2-.8h4.8v1.7h-3.8l.1-1s0-.1-.1-.1h-1.2l-.1 2.2s0 .1.1.1h6.6v3.2h-3c-.1 0-.1 0-.1.1l.4 1.2h4.1v-5.6H48l.1-2.3c.6.6 1.2 1 1.8 1.3.2.1.3 0 .3 0v-1.3c-.7-.2-1.6-.7-2.4-1.9zm-1.6 0c.3.5.6 1 1 1.3H43c.3-.4.6-.8.9-1.3h2.3z"/><path id="dgXMLID_31_" class="dgst0" d="M57 14.5l-2.4 1.8V7.9h-3.3v1.4h1.9v8.1c-.5.3-.8.6-.8.6l.8 1 3.9-3v-1.5c0-.1-.1-.1-.1 0z"/><path id="dgXMLID_30_" class="dgst0" d="M53.4 6.6H55v-.1l-2-3h-1.6c-.1 0-.1.1-.1.1.1 0 2.1 3 2.1 3z"/><path id="dgXMLID_29_" class="dgst0" d="M69.3 4.1h11.3v1.4H69.3z"/><path id="dgXMLID_28_" class="dgst0" d="M73.4 10.9h8.8V9.5H67.7v1.4h4c-.8 2.2-2.9 7.6-2.9 7.7 0 .1 0 .1.1.1h12.4c.1 0 .1-.1.1-.1l-1.9-4.9H78l-.1.1c0 .1 1.3 3.5 1.3 3.5H71l2.4-6.4z"/></g></g></svg><svg id="marketing-y" width="18" height="18" viewBox="-1 -1 18 18" x="200" y="144"><style>.dhst0{fill:#ffb800}</style><path class="dhst0" d="M9 5c1.1 0 2 .9 2 2v3h-1V7c0-.6-.4-1-1-1H6v8h3c3.3 0 6-2.7 6-6s-2.7-6-6-6H2v13H1V1h8c3.9 0 7 3.1 7 7s-3.1 7-7 7H5V5h4z"/></svg><svg width="18" height="18" viewBox="-1 -1 18 18" id="marketing-y-#FFFFFF" x="200" y="162"><style>.dist0{fill:#fff}</style><path class="dist0" d="M9 5c1.1 0 2 .9 2 2v3h-1V7c0-.6-.4-1-1-1H6v8h3c3.3 0 6-2.7 6-6s-2.7-6-6-6H2v13H1V1h8c3.9 0 7 3.1 7 7s-3.1 7-7 7H5V5h4z"/></svg><svg id="mongodb-y" width="18" height="18" viewBox="-42 42 18 18" y="188"><style>.djst0{fill:#ffb800}</style><path class="djst0" d="M-25.1 54c-.7-4.6-4.4-6-4.4-6s-3.7 1.4-4.4 6c-.5 3.2 2.9 3.9 3.9 4v1h1v-1c1-.2 4.4-.8 3.9-4zm-4.9 3c-1-.1-2-.4-2.6-1.1-.4-.4-.5-1-.4-1.7.4-2.7 1.9-4.1 2.9-4.7V57zm3.6-1.1c-.6.7-1.6 1-2.6 1.1v-7.6c1 .7 2.5 2.1 2.9 4.7.2.8 0 1.4-.3 1.8zm-8.2-5.9c.2-.4.4-.7.7-1h-.1c-3.3 0-6-1.1-6-2.5s2.7-2.5 6-2.5 6 1.1 6 2.5c.3.2.6.4 1 .6v-.7c0-1.9-3.1-3.5-7-3.5s-7 1.6-7 3.5v8c0 1.8 2.8 3.3 6.3 3.5l-.1-.1c-.2-.2-.4-.6-.6-.9-2.6-.3-4.6-1.3-4.6-2.4v-2.2c.9.8 2.4 1.3 4.1 1.6v-.2c0-.3.1-.5.2-.8-2.5-.3-4.3-1.3-4.3-2.4v-2.2c1.1.9 3.1 1.6 5.4 1.7z"/></svg><svg width="18" height="18" viewBox="-42 42 18 18" id="mongodb-y-#FFFFFF" x="234" y="242"><style>.dkst0{fill:#fff}</style><path class="dkst0" d="M-25.1 54c-.7-4.6-4.4-6-4.4-6s-3.7 1.4-4.4 6c-.5 3.2 2.9 3.9 3.9 4v1h1v-1c1-.2 4.4-.8 3.9-4zm-4.9 3c-1-.1-2-.4-2.6-1.1-.4-.4-.5-1-.4-1.7.4-2.7 1.9-4.1 2.9-4.7V57zm3.6-1.1c-.6.7-1.6 1-2.6 1.1v-7.6c1 .7 2.5 2.1 2.9 4.7.2.8 0 1.4-.3 1.8zm-8.2-5.9c.2-.4.4-.7.7-1h-.1c-3.3 0-6-1.1-6-2.5s2.7-2.5 6-2.5 6 1.1 6 2.5c.3.2.6.4 1 .6v-.7c0-1.9-3.1-3.5-7-3.5s-7 1.6-7 3.5v8c0 1.8 2.8 3.3 6.3 3.5l-.1-.1c-.2-.2-.4-.6-.6-.9-2.6-.3-4.6-1.3-4.6-2.4v-2.2c.9.8 2.4 1.3 4.1 1.6v-.2c0-.3.1-.5.2-.8-2.5-.3-4.3-1.3-4.3-2.4v-2.2c1.1.9 3.1 1.6 5.4 1.7z"/></svg><svg id="monitoring-y" width="18" height="18" viewBox="-42 42 18 18" x="36" y="188"><style>.dlst0{fill:#ffb800}</style><path class="dlst0" d="M-40 51c0-2.6 1.3-4.8 3.3-6.1l-.5-.9c-2.3 1.4-3.8 4-3.8 6.9 0 3 1.5 5.5 3.8 7l.5-.9c-2-1.2-3.3-3.4-3.3-6zm11.2-7l-.5.9c2 1.3 3.4 3.5 3.4 6.1 0 2.6-1.3 4.8-3.3 6.1l.5.9c2.3-1.4 3.8-4 3.8-6.9-.1-3.1-1.6-5.6-3.9-7.1zm-1.2 2.9l-.8-.6L-33 50c-.6 0-1 .5-1 1s.4 1 1 1 1-.5 1-1c0-.2-.1-.3-.1-.5l1.6-2.7c.9.7 1.5 1.9 1.5 3.2 0 2.3-1.8 4.1-4 4.1s-4-1.8-4-4.1c0-1.5.8-2.7 1.9-3.5l-.5-.9c-1.4.9-2.4 2.5-2.4 4.3 0 2.8 2.2 5.1 5 5.1s5-2.3 5-5.1c0-1.6-.8-3-2-4z"/></svg><svg width="18" height="18" viewBox="-42 42 18 18" id="monitoring-y-#FFFFFF" x="54" y="188"><style>.dmst0{fill:#fff}</style><path class="dmst0" d="M-40 51c0-2.6 1.3-4.8 3.3-6.1l-.5-.9c-2.3 1.4-3.8 4-3.8 6.9 0 3 1.5 5.5 3.8 7l.5-.9c-2-1.2-3.3-3.4-3.3-6zm11.2-7l-.5.9c2 1.3 3.4 3.5 3.4 6.1 0 2.6-1.3 4.8-3.3 6.1l.5.9c2.3-1.4 3.8-4 3.8-6.9-.1-3.1-1.6-5.6-3.9-7.1zm-1.2 2.9l-.8-.6L-33 50c-.6 0-1 .5-1 1s.4 1 1 1 1-.5 1-1c0-.2-.1-.3-.1-.5l1.6-2.7c.9.7 1.5 1.9 1.5 3.2 0 2.3-1.8 4.1-4 4.1s-4-1.8-4-4.1c0-1.5.8-2.7 1.9-3.5l-.5-.9c-1.4.9-2.4 2.5-2.4 4.3 0 2.8 2.2 5.1 5 5.1s5-2.3 5-5.1c0-1.6-.8-3-2-4z"/></svg><svg width="18" height="18" viewBox="-1 -1 18 18" id="nav-1" x="72" y="188"><path fill="#888" d="M12 6H4l4 5z"/></svg><svg width="18" height="18" viewBox="-1 -1 18 18" id="nav-10" x="90" y="188"><path fill-rule="evenodd" clip-rule="evenodd" fill="#2684FF" d="M9 4H7v5h4V7H9V4zM8 0a8 8 0 1 0 0 16A8 8 0 0 0 8 0zm0 14A6 6 0 1 1 8 2a6 6 0 0 1 0 12z"/></svg><svg width="18" height="18" viewBox="-1 -1 18 18" id="nav-14" x="108" y="188"><path fill-rule="evenodd" clip-rule="evenodd" fill="#888" d="M8 0a8 8 0 1 0 0 16A8 8 0 0 0 8 0zm0 14A6 6 0 1 1 8 2a6 6 0 0 1 0 12z"/><path fill="#888" d="M5.27 5.39c.14-.36.336-.672.588-.936a2.65 2.65 0 0 1 .912-.618 3.083 3.083 0 0 1 1.194-.223c.568 0 1.042.078 1.422.234.38.156.686.351.918.582a2.163 2.163 0 0 1 .648 1.5c0 .384-.05.7-.15.948a2.338 2.338 0 0 1-.864 1.086c-.18.124-.35.248-.51.372-.16.125-.302.267-.426.427s-.202.36-.234.6v.456h-1.62v-.54c.024-.344.09-.632.198-.863.108-.233.234-.431.378-.595.144-.163.296-.306.456-.426.16-.12.308-.24.444-.359.136-.12.246-.252.33-.396a.983.983 0 0 0 .114-.54c0-.368-.09-.64-.27-.815-.18-.177-.43-.265-.75-.265-.216 0-.402.042-.558.126a1.1 1.1 0 0 0-.384.335c-.1.141-.174.305-.222.492-.048.188-.072.39-.072.606H5.048A3.43 3.43 0 0 1 5.27 5.39zm3.594 5.149v1.848H6.98v-1.848h1.884z"/></svg><svg width="18" height="18" viewBox="-1 -1 18 18" id="nav-15" x="126" y="188"><path fill-rule="evenodd" clip-rule="evenodd" fill="#2684FF" d="M8 0a8 8 0 1 0 0 16A8 8 0 0 0 8 0zm0 14A6 6 0 1 1 8 2a6 6 0 0 1 0 12z"/><path fill="#2684FF" d="M5.27 5.39c.14-.36.336-.672.588-.936a2.65 2.65 0 0 1 .912-.618 3.083 3.083 0 0 1 1.194-.223c.568 0 1.042.078 1.422.234.38.156.686.351.918.582a2.163 2.163 0 0 1 .648 1.5c0 .384-.05.7-.15.948a2.338 2.338 0 0 1-.864 1.086c-.18.124-.35.248-.51.372-.16.125-.302.267-.426.427s-.202.36-.234.6v.456h-1.62v-.54c.024-.344.09-.632.198-.863.108-.233.234-.431.378-.595.144-.163.296-.306.456-.426.16-.12.308-.24.444-.359.136-.12.246-.252.33-.396a.983.983 0 0 0 .114-.54c0-.368-.09-.64-.27-.815-.18-.177-.43-.265-.75-.265-.216 0-.402.042-.558.126a1.1 1.1 0 0 0-.384.335c-.1.141-.174.305-.222.492-.048.188-.072.39-.072.606H5.048A3.43 3.43 0 0 1 5.27 5.39zm3.594 5.149v1.848H6.98v-1.848h1.884z"/></svg><svg width="18" height="18" viewBox="-1 -1 18 18" id="nav-16" x="144" y="188"><path fill-rule="evenodd" clip-rule="evenodd" fill="#FFF" d="M15 13l-2.881-2.881C12.674 9.209 13 8.144 13 7a6 6 0 1 0-6 6 5.968 5.968 0 0 0 3.119-.881L13 15l2-2zM3 7a4 4 0 1 1 8 0 4 4 0 0 1-8 0z"/></svg><svg width="18" height="18" viewBox="-1 -1 18 18" id="nav-17" x="162" y="188"><path fill-rule="evenodd" clip-rule="evenodd" fill="#888" d="M15 13l-2.881-2.881C12.674 9.209 13 8.144 13 7a6 6 0 1 0-6 6 5.968 5.968 0 0 0 3.119-.881L13 15l2-2zM3 7a4 4 0 1 1 8 0 4 4 0 0 1-8 0z"/></svg><svg width="18" height="18" viewBox="-1 -1 18 18" id="nav-18" x="180" y="188"><path fill-rule="evenodd" clip-rule="evenodd" fill="#888" d="M12.979 7h-4V3h-2v4h-4v2h4v4h2V9h4z"/></svg><svg width="18" height="18" viewBox="-1 -1 18 18" id="nav-18-dis" x="198" y="188"><path fill-rule="evenodd" clip-rule="evenodd" fill="#BBB" d="M12.979 7h-4V3h-2v4h-4v2h4v4h2V9h4z"/></svg><svg width="18" height="18" viewBox="-1 -1 18 18" id="nav-19" x="218"><path fill-rule="evenodd" clip-rule="evenodd" fill="#2684FF" d="M12.99 7.031h-4v-4h-2v4h-4v2h4v4h2v-4h4z"/></svg><svg width="18" height="18" viewBox="-1 -1 18 18" id="nav-2" x="218" y="18"><path fill="#2684FF" d="M12 6H4l4 5z"/></svg><svg width="18" height="18" viewBox="-1 -1 18 18" id="nav-20" x="218" y="36"><path fill-rule="evenodd" clip-rule="evenodd" fill="#888" d="M8.042 2l-4 5h8l-4-5zm-6 7v2h12V9h-12zm0 6h12v-2h-12v2z"/></svg><svg width="18" height="18" viewBox="-1 -1 18 18" id="nav-21" x="218" y="54"><path fill-rule="evenodd" clip-rule="evenodd" fill="#2684FF" d="M8.042 2l-4 5h8l-4-5zm-6 7v2h12V9h-12zm0 6h12v-2h-12v2z"/></svg><svg width="18" height="18" viewBox="-1 -1 18 18" id="nav-22" x="218" y="72"><path fill="#888" d="M13 8c0-.553-.111-1.075-.277-1.572l1.723-.995-1-1.732-1.721.994A4.964 4.964 0 0 0 9 3.101V1H7v2.101a4.968 4.968 0 0 0-2.725 1.593l-1.721-.993-1 1.732 1.723.995C3.111 6.925 3 7.447 3 8s.111 1.075.277 1.572l-1.723.995 1 1.732 1.721-.994A4.964 4.964 0 0 0 7 12.899V15h2v-2.101a4.97 4.97 0 0 0 2.725-1.594l1.721.994 1-1.732-1.723-.995A4.935 4.935 0 0 0 13 8zm-5 3a3 3 0 1 1 0-6 3 3 0 0 1 0 6z"/></svg><svg width="18" height="18" viewBox="-1 -1 18 18" id="nav-23" x="218" y="90"><path fill="#2684FF" d="M13 8c0-.553-.111-1.075-.277-1.572l1.723-.995-1-1.732-1.721.994A4.964 4.964 0 0 0 9 3.101V1H7v2.101a4.968 4.968 0 0 0-2.725 1.593l-1.721-.993-1 1.732 1.723.995C3.111 6.925 3 7.447 3 8s.111 1.075.277 1.572l-1.723.995 1 1.732 1.721-.994A4.964 4.964 0 0 0 7 12.899V15h2v-2.101a4.97 4.97 0 0 0 2.725-1.594l1.721.994 1-1.732-1.723-.995A4.935 4.935 0 0 0 13 8zm-5 3a3 3 0 1 1 0-6 3 3 0 0 1 0 6z"/></svg><svg width="18" height="18" viewBox="-1 -1 18 18" id="nav-24" x="218" y="108"><path fill="#888" d="M12.243 5.172l-1.415-1.415L8 6.586 5.172 3.757 3.757 5.172 6.586 8l-2.829 2.828 1.415 1.415L8 9.414l2.828 2.829 1.415-1.415L9.414 8z"/></svg><svg width="18" height="18" viewBox="-1 -1 18 18" id="nav-25" x="218" y="126"><path fill="#FFF" d="M12.243 5.172l-1.415-1.415L8 6.586 5.172 3.757 3.757 5.172 6.586 8l-2.829 2.828 1.415 1.415L8 9.414l2.828 2.829 1.415-1.415L9.414 8z"/></svg><svg width="18" height="18" viewBox="-1 -1 18 18" id="nav-3" x="218" y="144"><path fill="#2684FF" d="M6 4.042v8l5-4z"/></svg><svg width="18" height="18" viewBox="-1 -1 18 18" id="nav-7" x="218" y="162"><path fill-rule="evenodd" clip-rule="evenodd" fill="#888" d="M0 1v14h16V1H0zm14 12H2V6l6 3 6-3v7zM8 7L2 4V3h12v1L8 7z"/></svg><svg width="18" height="18" viewBox="-1 -1 18 18" id="nav-8" x="218" y="180"><path fill-rule="evenodd" clip-rule="evenodd" fill="#2684FF" d="M0 1v14h16V1H0zm14 12H2V6l6 3 6-3v7zM8 7L2 4V3h12v1L8 7z"/></svg><svg width="18" height="18" viewBox="-1 -1 18 18" id="nav-9" y="206"><path fill-rule="evenodd" clip-rule="evenodd" fill="#888" d="M9 4H7v5h4V7H9V4zM8 0a8 8 0 1 0 0 16A8 8 0 0 0 8 0zm0 14A6 6 0 1 1 8 2a6 6 0 0 1 0 12z"/></svg><svg id="permission-y" width="18" height="18" viewBox="-42 42 18 18" x="18" y="206"><style>.ehst0{fill-rule:evenodd;clip-rule:evenodd;fill:#ffb800}</style><path class="ehst0" d="M-28.8 44.2l-.5.9c2 1.2 3.4 3.4 3.4 6 0 2.5-1.3 4.7-3.3 5.9l.5.8c2.3-1.4 3.8-3.9 3.8-6.8-.1-2.9-1.6-5.4-3.9-6.8zM-33 51c1.1 0 2-.9 2-2s-.9-2-2-2-2 .9-2 2 .9 2 2 2zm0-3c.6 0 1 .4 1 1s-.4 1-1 1-1-.4-1-1 .4-1 1-1zm-7 3c0-2.5 1.3-4.7 3.3-5.9l-.5-.8c-2.3 1.4-3.8 3.9-3.8 6.8s1.5 5.4 3.8 6.8l.5-.9c-2-1.3-3.3-3.5-3.3-6zm11 4v-1c0-1.1-.9-2-2-2h-4c-1.1 0-2 .9-2 2v1h1v-1c0-.5.4-1 1-1h4c.5 0 1 .4 1 1v1h1z"/></svg><svg width="18" height="18" viewBox="-42 42 18 18" id="permission-y-#FFFFFF" x="36" y="206"><style>.eist0{fill-rule:evenodd;clip-rule:evenodd;fill:#fff}</style><path class="eist0" d="M-28.8 44.2l-.5.9c2 1.2 3.4 3.4 3.4 6 0 2.5-1.3 4.7-3.3 5.9l.5.8c2.3-1.4 3.8-3.9 3.8-6.8-.1-2.9-1.6-5.4-3.9-6.8zM-33 51c1.1 0 2-.9 2-2s-.9-2-2-2-2 .9-2 2 .9 2 2 2zm0-3c.6 0 1 .4 1 1s-.4 1-1 1-1-.4-1-1 .4-1 1-1zm-7 3c0-2.5 1.3-4.7 3.3-5.9l-.5-.8c-2.3 1.4-3.8 3.9-3.8 6.8s1.5 5.4 3.8 6.8l.5-.9c-2-1.3-3.3-3.5-3.3-6zm11 4v-1c0-1.1-.9-2-2-2h-4c-1.1 0-2 .9-2 2v1h1v-1c0-.5.4-1 1-1h4c.5 0 1 .4 1 1v1h1z"/></svg><svg id="physics-y" width="18" height="18" viewBox="-42 42 18 18" x="54" y="206"><style>.ejst0{fill:#ffb800}</style><path class="ejst0" d="M-30 52.6v1.1l4-2.2v-1.1l-1 .5-3 1.7zm-3.5-9.6l-7.5 4v8l7.5 4 7.5-4v-1.1l-1 .5-6.5 3.5-6.5-3.5v-6.8l6.5-3.5 6.5 3.5-6 3.2v1.1l7-3.7V47l-7.5-4z"/></svg><svg width="18" height="18" viewBox="-42 42 18 18" id="physics-y-#FFFFFF" x="72" y="206"><style>.ekst0{fill:#fff}</style><path class="ekst0" d="M-30 52.6v1.1l4-2.2v-1.1l-1 .5-3 1.7zm-3.5-9.6l-7.5 4v8l7.5 4 7.5-4v-1.1l-1 .5-6.5 3.5-6.5-3.5v-6.8l6.5-3.5 6.5 3.5-6 3.2v1.1l7-3.7V47l-7.5-4z"/></svg><svg id="pigeonhole" width="18" height="18" viewBox="-1 -1 18 18" x="90" y="206"><style>.elst0{fill-rule:evenodd;clip-rule:evenodd;fill:#fff}</style><g id="elXMLID_227_"><g id="elXMLID_33_"><path id="elXMLID_34_" class="elst0" d="M15 6V4.1L8.2.2 1.3 4.1v4.6l2-1.1 4.9-2.8L10.4 6 4.7 9.3l-.5.3.6.5H5l.1.1 3.1 1.9L14 8.7v2.8l-5.8 3.4-5.9-3.4V9.1l-1 .6V12l6.9 4 6.8-3.9V7l-1 .5v.1l-5.8 3.3-2.1-1.2 5.3-3.2.9-.5-.9-.5-3-1.8-.2-.1L2.3 7V4.7l5.9-3.4L14 4.7v1.9z"/></g></g></svg><svg id="pigeonhole-y" width="18" height="18" viewBox="-1 -1 18 18" x="108" y="206"><style>.emst0{fill-rule:evenodd;clip-rule:evenodd;fill:#ffb800}</style><g id="emXMLID_227_"><g id="emXMLID_33_"><path id="emXMLID_34_" class="emst0" d="M15 6V4.1L8.2.2 1.3 4.1v4.6l2-1.1 4.9-2.8L10.4 6 4.7 9.3l-.5.3.6.5H5l.1.1 3.1 1.9L14 8.7v2.8l-5.8 3.4-5.9-3.4V9.1l-1 .6V12l6.9 4 6.8-3.9V7l-1 .5v.1l-5.8 3.3-2.1-1.2 5.3-3.2.9-.5-.9-.5-3-1.8-.2-.1L2.3 7V4.7l5.9-3.4L14 4.7v1.9z"/></g></g></svg><svg width="18" height="18" viewBox="-1 -1 18 18" id="plaint-icon-#fff" x="126" y="206"><g fill="#fff"><path d="M7 4h1v2H7zm1 0h1v2H8zM7 7h1v5H7zm1 0h1v5H8z"/><path d="M8 2c3.308 0 6 2.692 6 6s-2.692 6-6 6-6-2.692-6-6 2.692-6 6-6m0-1a7 7 0 1 0 0 14A7 7 0 0 0 8 1z"/></g></svg><svg id="private-y" width="18" height="18" viewBox="-42 42 18 18" x="144" y="206"><style>.eost0{fill-rule:evenodd;clip-rule:evenodd;fill:#ffb800}</style><path class="eost0" d="M-34 53.9V57h1v-3.1c.6-.2 1-.8 1-1.4 0-.8-.7-1.5-1.5-1.5s-1.5.7-1.5 1.5c0 .7.4 1.2 1 1.4zm5-4.9v-2c-.3-2.2-2.2-4-4.5-4s-4.2 1.8-4.5 4v2h-2v10h13V49h-2zm-8-1.5c0-1.9 1.6-3.5 3.5-3.5s3.5 1.6 3.5 3.5V49h-7v-1.5zm9 10.5h-11v-8h11v8z"/></svg><svg width="18" height="18" viewBox="-42 42 18 18" id="private-y-#FFFFFF" x="162" y="206"><style>.epst0{fill-rule:evenodd;clip-rule:evenodd;fill:#fff}</style><path class="epst0" d="M-34 53.9V57h1v-3.1c.6-.2 1-.8 1-1.4 0-.8-.7-1.5-1.5-1.5s-1.5.7-1.5 1.5c0 .7.4 1.2 1 1.4zm5-4.9v-2c-.3-2.2-2.2-4-4.5-4s-4.2 1.8-4.5 4v2h-2v10h13V49h-2zm-8-1.5c0-1.9 1.6-3.5 3.5-3.5s3.5 1.6 3.5 3.5V49h-7v-1.5zm9 10.5h-11v-8h11v8z"/></svg><svg id="proof-y" width="18" height="18" viewBox="-42 42 18 18" x="180" y="206"><style>.eqst0{fill-rule:evenodd;clip-rule:evenodd;fill:#ffb800}</style><path class="eqst0" d="M-40 51c0-2.5 1.3-4.7 3.3-5.9l-.5-.8c-2.3 1.4-3.8 3.9-3.8 6.8s1.5 5.4 3.8 6.8l.5-.9c-2-1.3-3.3-3.5-3.3-6zm11.2-6.8l-.5.9c2 1.2 3.4 3.4 3.4 6 0 2.5-1.3 4.7-3.3 5.9l.5.8c2.3-1.4 3.8-3.9 3.8-6.8-.1-2.9-1.6-5.4-3.9-6.8zM-33 47c.8 0 1.5.2 2.1.6l.5-.9c-.8-.4-1.6-.7-2.6-.7s-1.9.3-2.6.8l.5.8c.6-.4 1.3-.6 2.1-.6zm0 8c-.8 0-1.5-.2-2.1-.6l-.5.9c.8.4 1.6.7 2.6.7s1.9-.3 2.6-.8l-.5-.8c-.6.4-1.3.6-2.1.6zm-2-2v-4h-3v4h1v-1h1v1h1zm-2-2v-1h1v1h-1zm3 2h1v-1h2v-3h-3v4zm1-3h1v1h-1v-1zm4-1h-1v4h1v-4z"/></svg><svg width="18" height="18" viewBox="-42 42 18 18" id="proof-y-#FFFFFF" x="198" y="206"><style>.erst0{fill-rule:evenodd;clip-rule:evenodd;fill:#fff}</style><path class="erst0" d="M-40 51c0-2.5 1.3-4.7 3.3-5.9l-.5-.8c-2.3 1.4-3.8 3.9-3.8 6.8s1.5 5.4 3.8 6.8l.5-.9c-2-1.3-3.3-3.5-3.3-6zm11.2-6.8l-.5.9c2 1.2 3.4 3.4 3.4 6 0 2.5-1.3 4.7-3.3 5.9l.5.8c2.3-1.4 3.8-3.9 3.8-6.8-.1-2.9-1.6-5.4-3.9-6.8zM-33 47c.8 0 1.5.2 2.1.6l.5-.9c-.8-.4-1.6-.7-2.6-.7s-1.9.3-2.6.8l.5.8c.6-.4 1.3-.6 2.1-.6zm0 8c-.8 0-1.5-.2-2.1-.6l-.5.9c.8.4 1.6.7 2.6.7s1.9-.3 2.6-.8l-.5-.8c-.6.4-1.3.6-2.1.6zm-2-2v-4h-3v4h1v-1h1v1h1zm-2-2v-1h1v1h-1zm3 2h1v-1h2v-3h-3v4zm1-3h1v1h-1v-1zm4-1h-1v4h1v-4z"/></svg><svg id="qlog-y" width="18" height="18" viewBox="-42 42 18 18" x="216" y="206"><style>.esst0{fill:#ffb800}</style><path class="esst0" d="M-33 44c-4.4 0-8 3.1-8 7 0 1.8.7 3.4 2 4.6l-1 3.4 3.5-1.7c1.1.5 2.3.7 3.5.7 4.4 0 8-3.1 8-7s-3.6-7-8-7zm0 13c-1.3 0-2.5-.3-3.6-.8l-1.9.9.5-1.8c-1.3-1.1-2.1-2.6-2.1-4.3 0-3.3 3.1-6 7-6s7 2.7 7 6c.1 3.3-3 6-6.9 6zm-3-7c-.6 0-1 .4-1 1s.4 1 1 1 1-.4 1-1-.4-1-1-1zm6 0c-.6 0-1 .4-1 1s.4 1 1 1 1-.4 1-1-.4-1-1-1zm-3 0c-.6 0-1 .4-1 1s.4 1 1 1 1-.4 1-1-.4-1-1-1z"/></svg><svg width="18" height="18" viewBox="-42 42 18 18" id="qlog-y-#FFFFFF" x="236"><style>.etst0{fill:#fff}</style><path class="etst0" d="M-33 44c-4.4 0-8 3.1-8 7 0 1.8.7 3.4 2 4.6l-1 3.4 3.5-1.7c1.1.5 2.3.7 3.5.7 4.4 0 8-3.1 8-7s-3.6-7-8-7zm0 13c-1.3 0-2.5-.3-3.6-.8l-1.9.9.5-1.8c-1.3-1.1-2.1-2.6-2.1-4.3 0-3.3 3.1-6 7-6s7 2.7 7 6c.1 3.3-3 6-6.9 6zm-3-7c-.6 0-1 .4-1 1s.4 1 1 1 1-.4 1-1-.4-1-1-1zm6 0c-.6 0-1 .4-1 1s.4 1 1 1 1-.4 1-1-.4-1-1-1zm-3 0c-.6 0-1 .4-1 1s.4 1 1 1 1-.4 1-1-.4-1-1-1z"/></svg><svg id="redis-y" width="18" height="18" viewBox="-42 42 18 18" x="236" y="18"><style>.eust0{fill:#ffb800}</style><path class="eust0" d="M-35 55.4l-1-.5V56l5.5 3 5.5-3v-1.1l-5.5 3-4.5-2.5zm0-2.6l-1-.5v1.1l5.5 3 5.5-3v-1.1l-5.5 3-4.5-2.5zm4.5-5.8l-5.5 3v1.1l5.5 3 5.5-3V50l-5.5-3zm0 6l-4.5-2.4 4.5-2.4 4.5 2.4-4.5 2.4zm-9.5-6.5c0-1.4 2.7-2.5 6-2.5s6 1.1 6 2.5c0 .2 0 .3-.1.5h1.1v-.5c0-1.9-3.1-3.5-7-3.5s-7 1.6-7 3.5v8c0 1.4 1.6 2.6 4 3.2v-1c-1.8-.4-3-1.2-3-2.2v-2.2c.7.6 1.8 1.1 3 1.4v-1c-1.8-.4-3-1.2-3-2.2v-2.2c.7.6 1.8 1.1 3 1.4v-1c-1.8-.5-3-1.3-3-2.2z"/></svg><svg width="18" height="18" viewBox="-42 42 18 18" id="redis-y-#FFFFFF" x="236" y="36"><style>.evst0{fill:#fff}</style><path class="evst0" d="M-35 55.4l-1-.5V56l5.5 3 5.5-3v-1.1l-5.5 3-4.5-2.5zm0-2.6l-1-.5v1.1l5.5 3 5.5-3v-1.1l-5.5 3-4.5-2.5zm4.5-5.8l-5.5 3v1.1l5.5 3 5.5-3V50l-5.5-3zm0 6l-4.5-2.4 4.5-2.4 4.5 2.4-4.5 2.4zm-9.5-6.5c0-1.4 2.7-2.5 6-2.5s6 1.1 6 2.5c0 .2 0 .3-.1.5h1.1v-.5c0-1.9-3.1-3.5-7-3.5s-7 1.6-7 3.5v8c0 1.4 1.6 2.6 4 3.2v-1c-1.8-.4-3-1.2-3-2.2v-2.2c.7.6 1.8 1.1 3 1.4v-1c-1.8-.4-3-1.2-3-2.2v-2.2c.7.6 1.8 1.1 3 1.4v-1c-1.8-.5-3-1.3-3-2.2z"/></svg><svg id="safety-y" viewBox="-1 -1 18 18" width="18" height="18" x="236" y="54"><style>.ewst4{fill-rule:evenodd;clip-rule:evenodd;fill:#ffb800}</style><path class="ewst4" d="M13.6 5H11V4c0-.8 0-4-3.4-4C4.5 0 4 2.3 4 4v1H1.4C.6 5 0 5.6 0 6.4v8.2c0 .8.6 1.4 1.4 1.4h12.2c.8 0 1.4-.6 1.4-1.4V6.4c0-.8-.6-1.4-1.4-1.4zM5 3.6C5 2.9 5.2 1 7.5 1 9.2 1 10 2.3 10 3.6V5H5V3.6zM14 14c0 .6-.4 1-1 1H2c-.6 0-1-.4-1-1V7c0-.6.4-1 1-1h11c.6 0 1 .4 1 1v7zm-4.3-1.1L9 9.3C8.9 8.6 8.2 8 7.5 8 6.7 8 6 8.7 6 9.5v.2l-.7 3.2h.1l-.1.1h4.5l-.1-.1zm-1-.9H6.3l.1-.5.5-2.1H7c0-.2.2-.4.5-.4.2 0 .4.2.5.4l.3 1.3.4 1.3z"/></svg><svg width="18" height="18" viewBox="-1 -1 18 18" id="safety-y-#FFFFFF" x="236" y="72"><style>.exst4{fill-rule:evenodd;clip-rule:evenodd;fill:#fff}</style><path class="exst4" d="M13.6 5H11V4c0-.8 0-4-3.4-4C4.5 0 4 2.3 4 4v1H1.4C.6 5 0 5.6 0 6.4v8.2c0 .8.6 1.4 1.4 1.4h12.2c.8 0 1.4-.6 1.4-1.4V6.4c0-.8-.6-1.4-1.4-1.4zM5 3.6C5 2.9 5.2 1 7.5 1 9.2 1 10 2.3 10 3.6V5H5V3.6zM14 14c0 .6-.4 1-1 1H2c-.6 0-1-.4-1-1V7c0-.6.4-1 1-1h11c.6 0 1 .4 1 1v7zm-4.3-1.1L9 9.3C8.9 8.6 8.2 8 7.5 8 6.7 8 6 8.7 6 9.5v.2l-.7 3.2h.1l-.1.1h4.5l-.1-.1zm-1-.9H6.3l.1-.5.5-2.1H7c0-.2.2-.4.5-.4.2 0 .4.2.5.4l.3 1.3.4 1.3z"/></svg><svg id="safetyprotection-y" width="18" height="18" viewBox="-42 42 18 18" x="236" y="90"><style>.eyst0{fill:#ffb800}</style><path class="eyst0" d="M-29 44h3v-1h-15v7s0 8 7.5 9c7.5-1 7.5-9 7.5-9v-4h-1v4c0 .1 0 .5-.1 1.2l-7.2-7.2h5.3zm-11 6v-.3l7.9 7.9c-.4.1-.9.3-1.4.4-6.4-.9-6.5-7.7-6.5-8zm8.9 7.2l-8.9-8.9v-3.6l10.9 10.9c-.5.7-1.1 1.2-2 1.6zm3.7-4.8c-.2.8-.6 1.7-1.1 2.5L-39.3 44h3.6l8.3 8.4z"/></svg><svg width="18" height="18" viewBox="-42 42 18 18" id="safetyprotection-y-#FFFFFF" x="236" y="108"><style>.ezst0{fill:#fff}</style><path class="ezst0" d="M-29 44h3v-1h-15v7s0 8 7.5 9c7.5-1 7.5-9 7.5-9v-4h-1v4c0 .1 0 .5-.1 1.2l-7.2-7.2h5.3zm-11 6v-.3l7.9 7.9c-.4.1-.9.3-1.4.4-6.4-.9-6.5-7.7-6.5-8zm8.9 7.2l-8.9-8.9v-3.6l10.9 10.9c-.5.7-1.1 1.2-2 1.6zm3.7-4.8c-.2.8-.6 1.7-1.1 2.5L-39.3 44h3.6l8.3 8.4z"/></svg><svg id="security-y" width="18" height="18" viewBox="-42 42 18 18" x="236" y="126"><style>.fast0{fill:#ffb800}</style><path class="fast0" d="M-33.5 46c-1.4 0-2.5 1.1-2.5 2.5v.5h-1v5h7v-5h-1v-.5c0-1.4-1.1-2.5-2.5-2.5zm-1.5 2.5c0-.8.7-1.5 1.5-1.5s1.5.7 1.5 1.5v.5h-3v-.5zm4 4.5h-5v-3h5v3zm5-10h-15v7s0 8 7.5 9c7.5-1 7.5-9 7.5-9v-4h-1v4c0 .3-.1 7.1-6.5 8-6.4-.9-6.5-7.7-6.5-8v-6h14v-1z"/></svg><svg width="18" height="18" viewBox="-42 42 18 18" id="security-y-#FFFFFF" x="236" y="144"><style>.fbst0{fill:#fff}</style><path class="fbst0" d="M-33.5 46c-1.4 0-2.5 1.1-2.5 2.5v.5h-1v5h7v-5h-1v-.5c0-1.4-1.1-2.5-2.5-2.5zm-1.5 2.5c0-.8.7-1.5 1.5-1.5s1.5.7 1.5 1.5v.5h-3v-.5zm4 4.5h-5v-3h5v3zm5-10h-15v7s0 8 7.5 9c7.5-1 7.5-9 7.5-9v-4h-1v4c0 .3-.1 7.1-6.5 8-6.4-.9-6.5-7.7-6.5-8v-6h14v-1z"/></svg><svg id="server-y" width="18" height="18" viewBox="-42 42 18 18" x="236" y="162"><style>.fcst0{fill:#ffb800}</style><path class="fcst0" d="M-26 47l-7.5-4-7.5 4v7l4.2 2.3c.1-.3.3-.6.5-.9l-3.7-2v-4.7l6.5 3.5 6.5-3.5v4.7l-5.5 3c-.3-.2-.6-.4-1-.4-.8 0-1.5.7-1.5 1.5s.7 1.5 1.5 1.5 1.5-.7 1.5-1.5v-.3l6-3.2v-7zm-7.5 4.1l-6.5-3.5 6.5-3.5 6.5 3.5-6.5 3.5z"/></svg><svg width="18" height="18" viewBox="-42 42 18 18" id="server-y-#FFFFFF" x="236" y="180"><style>.fdst0{fill:#fff}</style><path class="fdst0" d="M-26 47l-7.5-4-7.5 4v7l4.2 2.3c.1-.3.3-.6.5-.9l-3.7-2v-4.7l6.5 3.5 6.5-3.5v4.7l-5.5 3c-.3-.2-.6-.4-1-.4-.8 0-1.5.7-1.5 1.5s.7 1.5 1.5 1.5 1.5-.7 1.5-1.5v-.3l6-3.2v-7zm-7.5 4.1l-6.5-3.5 6.5-3.5 6.5 3.5-6.5 3.5z"/></svg><svg id="sms-y" width="18" height="18" viewBox="-42 42 18 18" x="236" y="198"><style>.fest0{fill:#ffb800}</style><path class="fest0" d="M-41 45v12h16V45h-16zm14 1l-6 4.7-6-4.7h12zm-13 10v-9.5l7 5.5 7-5.5V56h-14z"/></svg><svg width="18" height="18" viewBox="-42 42 18 18" id="sms-y-#FFFFFF" y="224"><style>.ffst0{fill:#fff}</style><path class="ffst0" d="M-41 45v12h16V45h-16zm14 1l-6 4.7-6-4.7h12zm-13 10v-9.5l7 5.5 7-5.5V56h-14z"/></svg><svg id="sql-y" width="18" height="18" viewBox="-42 42 18 18" x="18" y="224"><style>.fgst0{fill:#ffb800}</style><path class="fgst0" d="M-25 52h-4v-4l-5 7h4v4l5-7zm-7.1 2l2.1-2.9V53h3.1l-2.1 2.9V54h-3.1zm-1.9 3c-3.3 0-6-1.1-6-2.5v-2.2c1 .8 2.6 1.4 4.5 1.6l.7-.9c-2.9-.2-5.1-1.2-5.1-2.5v-2.2c1.2 1 3.4 1.7 6 1.7.4 0 .8 0 1.2-.1l.8-1.1c-.6.1-1.3.1-2 .1-3.3 0-6-1.1-6-2.5s2.7-2.5 6-2.5c2.9 0 5.3.9 5.9 2h.1v5h1v-4.5c0-1.9-3.1-3.5-7-3.5s-7 1.6-7 3.5v8c0 1.9 3.1 3.5 7 3.5 1.1 0 2.1-.1 3-.4v-1c-1 .4-2 .5-3.1.5z"/></svg><svg width="18" height="18" viewBox="-42 42 18 18" id="sql-y-#FFFFFF" x="36" y="224"><style>.fhst0{fill:#fff}</style><path class="fhst0" d="M-25 52h-4v-4l-5 7h4v4l5-7zm-7.1 2l2.1-2.9V53h3.1l-2.1 2.9V54h-3.1zm-1.9 3c-3.3 0-6-1.1-6-2.5v-2.2c1 .8 2.6 1.4 4.5 1.6l.7-.9c-2.9-.2-5.1-1.2-5.1-2.5v-2.2c1.2 1 3.4 1.7 6 1.7.4 0 .8 0 1.2-.1l.8-1.1c-.6.1-1.3.1-2 .1-3.3 0-6-1.1-6-2.5s2.7-2.5 6-2.5c2.9 0 5.3.9 5.9 2h.1v5h1v-4.5c0-1.9-3.1-3.5-7-3.5s-7 1.6-7 3.5v8c0 1.9 3.1 3.5 7 3.5 1.1 0 2.1-.1 3-.4v-1c-1 .4-2 .5-3.1.5z"/></svg><svg id="ssl-y" width="18" height="18" viewBox="-42 42 18 18" x="54" y="224"><style>.fist0{fill-rule:evenodd;clip-rule:evenodd;fill:#ffb800}</style><path class="fist0" d="M-25 54V44h-16v13h16v-1h-15v-8h14v6h1zm-15-7v-2h14v2h-14zm10 8v-6h-6v6h1v-1h1v-1h-1v-3h4v3h-1v1h1v1h1zm-4-3v1h2v-1h-2z"/></svg><svg width="18" height="18" viewBox="-42 42 18 18" id="ssl-y-#FFFFFF" x="72" y="224"><style>.fjst0{fill-rule:evenodd;clip-rule:evenodd;fill:#fff}</style><path class="fjst0" d="M-25 54V44h-16v13h16v-1h-15v-8h14v6h1zm-15-7v-2h14v2h-14zm10 8v-6h-6v6h1v-1h1v-1h-1v-3h4v3h-1v1h1v1h1zm-4-3v1h2v-1h-2z"/></svg><svg id="storage-y" width="18" height="18" viewBox="-42 42 18 18" x="90" y="224"><style>.fkst0{fill:#ffb800}</style><path class="fkst0" d="M-33.5 43l-7.5 4v8l7.5 4 7.5-4v-7.1l-1 .5v5.9l-6 3.2v-5.7l5.1-2.7 1.9-1V47l-7.5-4zm-.5 14.6l-6-3.2v-5.7l6 3.2v5.7zm.5-6.5l-6.5-3.5 6.5-3.5 6.5 3.5-6.5 3.5z"/></svg><svg width="18" height="18" viewBox="-42 42 18 18" id="storage-y-#FFFFFF" x="108" y="224"><style>.flst0{fill:#fff}</style><path class="flst0" d="M-33.5 43l-7.5 4v8l7.5 4 7.5-4v-7.1l-1 .5v5.9l-6 3.2v-5.7l5.1-2.7 1.9-1V47l-7.5-4zm-.5 14.6l-6-3.2v-5.7l6 3.2v5.7zm.5-6.5l-6.5-3.5 6.5-3.5 6.5 3.5-6.5 3.5z"/></svg><svg id="tact-y" width="18" height="18" viewBox="-42 42 18 18" x="126" y="224"><style>.fmst0{fill:#ffb800}</style><path class="fmst0" d="M-28.2 45.2c-2.9-2.9-7.7-2.9-10.6 0-2.9 2.9-2.9 7.7 0 10.6.9.9 2 1.5 3.1 1.9l.8-.8L-31 53c1.4-1.4 1.4-3.6 0-4.9-1.4-1.4-3.6-1.4-4.9 0-1.4 1.4-1.4 3.6 0 4.9.1.1.4.3.4.3l.7-.7 2.1-2.1-.7-.7-2.1 2.1c-.6-1-.5-2.3.3-3.1 1-1 2.6-1 3.5 0 1 1 1 2.6 0 3.5l-4.2 4.2c-.8-.3-1.5-.8-2.1-1.4-2.5-2.5-2.5-6.7 0-9.2 2.5-2.5 6.7-2.5 9.2 0 2.5 2.5 2.5 6.7 0 9.2l-1.8 1.8.7.7 1.8-1.8c2.8-2.9 2.8-7.7-.1-10.6z"/></svg><svg width="18" height="18" viewBox="-42 42 18 18" id="tact-y-#FFFFFF" x="144" y="224"><style>.fnst0{fill:#fff}</style><path class="fnst0" d="M-28.2 45.2c-2.9-2.9-7.7-2.9-10.6 0-2.9 2.9-2.9 7.7 0 10.6.9.9 2 1.5 3.1 1.9l.8-.8L-31 53c1.4-1.4 1.4-3.6 0-4.9-1.4-1.4-3.6-1.4-4.9 0-1.4 1.4-1.4 3.6 0 4.9.1.1.4.3.4.3l.7-.7 2.1-2.1-.7-.7-2.1 2.1c-.6-1-.5-2.3.3-3.1 1-1 2.6-1 3.5 0 1 1 1 2.6 0 3.5l-4.2 4.2c-.8-.3-1.5-.8-2.1-1.4-2.5-2.5-2.5-6.7 0-9.2 2.5-2.5 6.7-2.5 9.2 0 2.5 2.5 2.5 6.7 0 9.2l-1.8 1.8.7.7 1.8-1.8c2.8-2.9 2.8-7.7-.1-10.6z"/></svg><svg id="tdf-y" viewBox="-1 -1 18 18" width="18" height="18" x="162" y="224"><style>.fost0{fill:#ffb800}</style><path class="fost0" d="M0 16v-3h1v2h14v-2h1v3H0zm13-5h-1V6h4v1h-3v1h3v1h-3v2zm2-10H1v2H0V0h16v3h-1V1zM6 11V6h2.2c1 0 1.7.2 2.2.7.5.4.7 1 .7 1.8s-.2 1.4-.7 1.8c-.6.5-1.4.7-2.3.7H6zm4-2.5c0-.5-.1-.9-.4-1.1-.3-.3-.8-.4-1.5-.4H7v3h1.1c.6 0 1.1-.1 1.5-.4.2-.2.4-.6.4-1.1zM5 7H3v4H2V7H0V6h5v1z"/></svg><svg width="18" height="18" viewBox="-1 -1 18 18" id="tdf-y-#FFFFFF" x="180" y="224"><style>.fpst0{fill:#fff}</style><path class="fpst0" d="M0 16v-3h1v2h14v-2h1v3H0zm13-5h-1V6h4v1h-3v1h3v1h-3v2zm2-10H1v2H0V0h16v3h-1V1zM6 11V6h2.2c1 0 1.7.2 2.2.7.5.4.7 1 .7 1.8s-.2 1.4-.7 1.8c-.6.5-1.4.7-2.3.7H6zm4-2.5c0-.5-.1-.9-.4-1.1-.3-.3-.8-.4-1.5-.4H7v3h1.1c.6 0 1.1-.1 1.5-.4.2-.2.4-.6.4-1.1zM5 7H3v4H2V7H0V6h5v1z"/></svg><svg id="test-y" width="18" height="18" viewBox="-42 42 18 18" x="198" y="224"><style>.fqst0{fill-rule:evenodd;clip-rule:evenodd;fill:#ffb800}</style><path class="fqst0" d="M-33 50c-.6 0-1 .5-1 1 0 .6.4 1 1 1s1-.5 1-1c0-.6-.4-1-1-1zm-7 1c0-2.6 1.3-4.8 3.3-6.1l-.5-.9c-2.3 1.4-3.8 4-3.8 6.9 0 3 1.5 5.5 3.8 7l.5-.9c-2-1.2-3.3-3.4-3.3-6zm11.2-7l-.5.9c2 1.3 3.4 3.5 3.4 6.1 0 2.6-1.3 4.8-3.3 6.1l.5.9c2.3-1.4 3.8-4 3.8-6.9-.1-3.1-1.6-5.6-3.9-7.1zm-1.6 2.6l-.5.9c1.2.7 1.9 2 1.9 3.5s-.8 2.7-1.9 3.5l.5.9c1.4-.9 2.4-2.5 2.4-4.3 0-1.9-1-3.6-2.4-4.5zM-37 51c0-1.5.8-2.7 1.9-3.5l-.5-.9c-1.4.9-2.4 2.5-2.4 4.3 0 1.8 1 3.5 2.4 4.4l.5-.9c-1.1-.6-1.9-1.9-1.9-3.4z"/></svg><svg width="18" height="18" viewBox="-42 42 18 18" id="test-y-#FFFFFF" x="216" y="224"><style>.frst0{fill-rule:evenodd;clip-rule:evenodd;fill:#fff}</style><path class="frst0" d="M-33 50c-.6 0-1 .5-1 1 0 .6.4 1 1 1s1-.5 1-1c0-.6-.4-1-1-1zm-7 1c0-2.6 1.3-4.8 3.3-6.1l-.5-.9c-2.3 1.4-3.8 4-3.8 6.9 0 3 1.5 5.5 3.8 7l.5-.9c-2-1.2-3.3-3.4-3.3-6zm11.2-7l-.5.9c2 1.3 3.4 3.5 3.4 6.1 0 2.6-1.3 4.8-3.3 6.1l.5.9c2.3-1.4 3.8-4 3.8-6.9-.1-3.1-1.6-5.6-3.9-7.1zm-1.6 2.6l-.5.9c1.2.7 1.9 2 1.9 3.5s-.8 2.7-1.9 3.5l.5.9c1.4-.9 2.4-2.5 2.4-4.3 0-1.9-1-3.6-2.4-4.5zM-37 51c0-1.5.8-2.7 1.9-3.5l-.5-.9c-1.4.9-2.4 2.5-2.4 4.3 0 1.8 1 3.5 2.4 4.4l.5-.9c-1.1-.6-1.9-1.9-1.9-3.4z"/></svg><svg id="tinyvideo-y" width="18" height="18" viewBox="-42 42 18 18" x="234" y="224"><style>.fsst0{fill:#ffb800}</style><path class="fsst0" d="M-35.5 53l2.7-1.7c.2-.1.2-.4 0-.5l-2.7-1.7c-.2-.1-.5 0-.5.3v3.3c0 .2.3.4.5.3zm6.5-5v-3h-12v1h11v3.3l1.2-.3 2.8-.7v5.4l-2.8-.7-1.2-.3V56h-10v-8h-1v9h12v-3l4 1v-8l-4 1z"/></svg><svg width="18" height="18" viewBox="-42 42 18 18" id="tinyvideo-y-#FFFFFF" x="254"><style>.ftst0{fill:#fff}</style><path class="ftst0" d="M-35.5 53l2.7-1.7c.2-.1.2-.4 0-.5l-2.7-1.7c-.2-.1-.5 0-.5.3v3.3c0 .2.3.4.5.3zm6.5-5v-3h-12v1h11v3.3l1.2-.3 2.8-.7v5.4l-2.8-.7-1.2-.3V56h-10v-8h-1v9h12v-3l4 1v-8l-4 1z"/></svg><svg width="18" height="18" viewBox="-1 -1 18 18" id="translate-y" x="254" y="18"><path fill="#F5B215" d="M11.5 2c-1.4 0-2.7.7-3.5 1.7l.6.9c.6-1 1.7-1.6 2.9-1.6C13.4 3 15 4.6 15 6.5S13.4 10 11.5 10c-1.2 0-2.3-.6-2.9-1.6l-.6.9c.8 1 2.1 1.7 3.5 1.7C14 11 16 9 16 6.5S14 2 11.5 2z"/><path fill="#F5B215" d="M4.5 3C6.4 3 8 4.6 8 6.5S6.4 10 4.5 10 1 8.4 1 6.5 2.6 3 4.5 3m0-1C2 2 0 4 0 6.5S2 11 4.5 11 9 9 9 6.5 7 2 4.5 2z"/><path fill="#F5B215" d="M10.9 10.3c0 .2.1.4.1.7 0 1.7-1.3 3-3 3s-3-1.3-3-3c0-.2 0-.4.1-.7h-1c-.1.3-.1.5-.1.7 0 2.2 1.8 4 4 4s4-1.8 4-4c0-.2 0-.4-.1-.7h-1z"/></svg><svg width="18" height="18" viewBox="-1 -1 18 18" id="translate-y-#FFFFFF" x="254" y="36"><path fill="#FFF" d="M11.5 2c-1.4 0-2.7.7-3.5 1.7l.6.9c.6-1 1.7-1.6 2.9-1.6C13.4 3 15 4.6 15 6.5S13.4 10 11.5 10c-1.2 0-2.3-.6-2.9-1.6l-.6.9c.8 1 2.1 1.7 3.5 1.7C14 11 16 9 16 6.5S14 2 11.5 2z"/><path fill="#FFF" d="M4.5 3C6.4 3 8 4.6 8 6.5S6.4 10 4.5 10 1 8.4 1 6.5 2.6 3 4.5 3m0-1C2 2 0 4 0 6.5S2 11 4.5 11 9 9 9 6.5 7 2 4.5 2z"/><path fill="#FFF" d="M10.9 10.3c0 .2.1.4.1.7 0 1.7-1.3 3-3 3s-3-1.3-3-3c0-.2 0-.4.1-.7h-1c-.1.3-.1.5-.1.7 0 2.2 1.8 4 4 4s4-1.8 4-4c0-.2 0-.4-.1-.7h-1z"/></svg><svg id="user-analyze-y" width="18" height="18" viewBox="-42 42 18 18" x="254" y="54"><style>.fwst0{fill-rule:evenodd;clip-rule:evenodd;fill:#ffb800}</style><path class="fwst0" d="M-28 46h-13v1h13v-1zm-4 10h7v-1h-7v1zm-6 0h5v-1h-5v1zm8-4h-10v1h10v-1zm1 1h4v-1h-4v1zm-6-4v1h10v-1h-10zm-1 0h-4v1h4v-1z"/></svg><svg width="18" height="18" viewBox="-42 42 18 18" id="user-analyze-y-#FFFFFF" x="254" y="72"><style>.fxst0{fill-rule:evenodd;clip-rule:evenodd;fill:#fff}</style><path class="fxst0" d="M-28 46h-13v1h13v-1zm-4 10h7v-1h-7v1zm-6 0h5v-1h-5v1zm8-4h-10v1h10v-1zm1 1h4v-1h-4v1zm-6-4v1h10v-1h-10zm-1 0h-4v1h4v-1z"/></svg><svg id="user-logs-btn" width="18" height="18" viewBox="-1 -1 18 18" x="254" y="90"><style>.fyst0{fill:#fff}</style><path class="fyst0" d="M5 10c0-1.1-.9-2-2-2v.7l1 1L2.6 11l-1-1H1c0 1.1.9 2 2 2 .3 0 .6-.1.8-.2L7 15h.8l.2-.2v-.9l-3.2-3.1c.1-.2.2-.5.2-.8zM8.5 0C4.9 0 1.8 2.6 1.1 6h1c.7-2.9 3.2-5 6.3-5C12.1 1 15 3.9 15 7.5c0 3.1-2.1 5.6-5 6.3v1c3.4-.7 6-3.7 6-7.3C16 3.4 12.6 0 8.5 0zM13 7H9V2H8v6h5V7z"/></svg><svg id="user-logs-btn-cur" width="18" height="18" viewBox="-1 -1 18 18" x="254" y="108"><style>.fzst0{fill:#f5b317}</style><path class="fzst0" d="M5 10c0-1.1-.9-2-2-2v.7l1 1L2.6 11l-1-1H1c0 1.1.9 2 2 2 .3 0 .6-.1.8-.2L7 15h.8l.2-.2v-.9l-3.2-3.1c.1-.2.2-.5.2-.8zM8.5 0C4.9 0 1.8 2.6 1.1 6h1c.7-2.9 3.2-5 6.3-5C12.1 1 15 3.9 15 7.5c0 3.1-2.1 5.6-5 6.3v1c3.4-.7 6-3.7 6-7.3C16 3.4 12.6 0 8.5 0zM13 7H9V2H8v6h5V7z"/></svg><svg viewBox="-1 -1 18 18" width="18" height="18" id="user-notice-icon" x="254" y="126"><path fill="#fff" d="M15 2v12H1V2h14m1-1H0v14h16V1z"/><path fill="#fff" d="M1 2h1v1H1zm1 1h1v1H2zm1 1h1v1H3zm1 1h1v1H4zm1 1h1v1H5zm1 1h1v1H6zm1 1h1v1H7zm1 0h1v1H8zm1-1h1v1H9zm1-1h1v1h-1zm1-1h1v1h-1zm1-1h1v1h-1zm1-1h1v1h-1zm1-1h1v1h-1z"/></svg><svg viewBox="-1 -1 18 18" width="18" height="18" id="user-notice-icon-cur" x="254" y="144"><path fill="#F5B317" d="M15 2v12H1V2h14m1-1H0v14h16V1z"/><path fill="#F5B317" d="M1 2h1v1H1zm1 1h1v1H2zm1 1h1v1H3zm1 1h1v1H4zm1 1h1v1H5zm1 1h1v1H6zm1 1h1v1H7zm1 0h1v1H8zm1-1h1v1H9zm1-1h1v1h-1zm1-1h1v1h-1zm1-1h1v1h-1zm1-1h1v1h-1zm1-1h1v1h-1z"/></svg><svg id="video-y" width="18" height="18" viewBox="-42 42 18 18" x="254" y="162"><style>.gcst0{fill:#ffb800}</style><path class="gcst0" d="M-30.8 51.3l-2.7-1.7c-.2-.1-.5 0-.5.3v3.3c0 .2.3.4.5.3l2.7-1.7c.2-.1.2-.4 0-.5zm2.8-2.2V49c0-2.8-2.2-5-5-5s-5 2.2-5 5v.1c-1.7.4-3 2-3 3.9 0 2.2 1.8 4 4 4h3v-1h-3c-1.7 0-3-1.3-3-3 0-1.4.9-2.6 2.3-2.9l.8-.2v-1c0-2.2 1.8-4 4-4s4 1.8 4 4v1l.8.2c1.3.3 2.3 1.5 2.3 2.9 0 1.7-1.3 3-3 3h-3v1h3c2.2 0 4-1.8 4-4-.2-1.9-1.5-3.4-3.2-3.9z"/></svg><svg width="18" height="18" viewBox="-42 42 18 18" id="video-y-#FFFFFF" x="254" y="180"><style>.gdst0{fill:#fff}</style><path class="gdst0" d="M-30.8 51.3l-2.7-1.7c-.2-.1-.5 0-.5.3v3.3c0 .2.3.4.5.3l2.7-1.7c.2-.1.2-.4 0-.5zm2.8-2.2V49c0-2.8-2.2-5-5-5s-5 2.2-5 5v.1c-1.7.4-3 2-3 3.9 0 2.2 1.8 4 4 4h3v-1h-3c-1.7 0-3-1.3-3-3 0-1.4.9-2.6 2.3-2.9l.8-.2v-1c0-2.2 1.8-4 4-4s4 1.8 4 4v1l.8.2c1.3.3 2.3 1.5 2.3 2.9 0 1.7-1.3 3-3 3h-3v1h3c2.2 0 4-1.8 4-4-.2-1.9-1.5-3.4-3.2-3.9z"/></svg><svg id="vientiane-y" width="18" height="18" viewBox="-42 42 18 18" x="254" y="198"><style>.gest0{fill:#ffb800}</style><path class="gest0" d="M-41 44v1h15v9h1V44h-16zm9.8 6.9l-2.8-3.3-5 6.4h1.3l.8-1 3-3.8 2 2.4.7.9.8-.9.2-.2 1.2 1.5.9 1.1h1.2l-3.2-4.2-1.1 1.1zM-40 47h-1v10h16v-1h-15v-9zm10 0v2h2v-2h-2z"/></svg><svg width="18" height="18" viewBox="-42 42 18 18" id="vientiane-y-#FFFFFF" x="254" y="216"><style>.gfst0{fill:#fff}</style><path class="gfst0" d="M-41 44v1h15v9h1V44h-16zm9.8 6.9l-2.8-3.3-5 6.4h1.3l.8-1 3-3.8 2 2.4.7.9.8-.9.2-.2 1.2 1.5.9 1.1h1.2l-3.2-4.2-1.1 1.1zM-40 47h-1v10h16v-1h-15v-9zm10 0v2h2v-2h-2z"/></svg><svg id="voice-y" width="18" height="18" viewBox="-42 42 18 18" y="242"><style>.ggst0{fill-rule:evenodd;clip-rule:evenodd;fill:#ffb800}</style><path class="ggst0" d="M-29 50h-2v-3h-1v3h-2v-6h-1v6h-2v-3h-1v3h-2v-2h-1v5h1v-2h2v4h1v-4h2v6h1v-6h2v4h1v-4h2v2h1v-5h-1v2zm3-1v3h1v-3h-1z"/></svg><svg width="18" height="18" viewBox="-42 42 18 18" id="voice-y-#FFFFFF" x="18" y="242"><style>.ghst0{fill-rule:evenodd;clip-rule:evenodd;fill:#fff}</style><path class="ghst0" d="M-29 50h-2v-3h-1v3h-2v-6h-1v6h-2v-3h-1v3h-2v-2h-1v5h1v-2h2v4h1v-4h2v6h1v-6h2v4h1v-4h2v2h1v-5h-1v2zm3-1v3h1v-3h-1z"/></svg><svg id="vpn-y" width="18" height="18" viewBox="-42 42 18 18" x="36" y="242"><style>.gist0{fill-rule:evenodd;clip-rule:evenodd;fill:#ffb800}</style><path class="gist0" d="M-37 50h1v-3h-1v3zm-2-3v3h1v-3h-1zm1 4h1v-1h-1v1zm3 0h1v-2h2v-2h-3v4zm9 3V44h-15v10h7v2h-3v1h7v-1h-3v-2h7zm-14-1v-8h13v8h-13zm9-2h1v-3h1v3h1v-4h-3v4z"/></svg><svg width="18" height="18" viewBox="-42 42 18 18" id="vpn-y-#FFFFFF" x="54" y="242"><style>.gjst0{fill-rule:evenodd;clip-rule:evenodd;fill:#fff}</style><path class="gjst0" d="M-37 50h1v-3h-1v3zm-2-3v3h1v-3h-1zm1 4h1v-1h-1v1zm3 0h1v-2h2v-2h-3v4zm9 3V44h-15v10h7v2h-3v1h7v-1h-3v-2h7zm-14-1v-8h13v8h-13zm9-2h1v-3h1v3h1v-4h-3v4z"/></svg><svg id="web-y" width="18" height="18" viewBox="-42 42 18 18" x="72" y="242"><style>.gkst0{fill-rule:evenodd;clip-rule:evenodd;fill:#ffb800}</style><path class="gkst0" d="M-34.9 48.6l-4.5-3.2 2.5-1.3V43l-4 2.1v3.4l1 .5v-2.8l4.1 2.8.9-.4zm1.9 3.5h-1v4.6l-3-1.6v1.1l3.5 1.9 3.5-1.9V55l-3 1.6v-4.5zm3-9.1v1.1l2.5 1.3-4.5 3.1 1 .5 4.1-2.8V49l1-.5v-3.4L-30 43z"/></svg><svg width="18" height="18" viewBox="-42 42 18 18" id="web-y-#FFFFFF" x="90" y="242"><style>.glst0{fill-rule:evenodd;clip-rule:evenodd;fill:#fff}</style><path class="glst0" d="M-34.9 48.6l-4.5-3.2 2.5-1.3V43l-4 2.1v3.4l1 .5v-2.8l4.1 2.8.9-.4zm1.9 3.5h-1v4.6l-3-1.6v1.1l3.5 1.9 3.5-1.9V55l-3 1.6v-4.5zm3-9.1v1.1l2.5 1.3-4.5 3.1 1 .5 4.1-2.8V49l1-.5v-3.4L-30 43z"/></svg><svg id="wechat-y" width="18" height="18" viewBox="-8 8 18 18" x="108" y="242"><style>.gmst0{fill:#ffb800}</style><path id="gmXMLID_177_" class="gmst0" d="M5 10c-2.2 0-4 1.8-4 4v6c0 1.6-1.3 3-3 3s-3-1.3-3-3c0-1.1.6-2 1.5-2.6.3-.1.5-.3.4-.6-.1-.3-.3-.5-.6-.4-1.4.7-2.3 2-2.3 3.6 0 2.2 1.8 4 4 4s4-1.8 4-4v-6c0-1.6 1.4-3 3-3s3 1.3 3 3c0 1.1-.6 2-1.5 2.6-.3.1-.5.3-.4.6.1.3.3.5.6.4 1.4-.7 2.3-2 2.3-3.6 0-2.2-1.8-4-4-4z"/></svg><svg width="18" height="18" viewBox="-8 8 18 18" id="wechat-y-#FFFFFF" x="126" y="242"><style>.gnst0{fill:#fff}</style><path class="gnst0" d="M5 10c-2.2 0-4 1.8-4 4v6c0 1.6-1.3 3-3 3s-3-1.3-3-3c0-1.1.6-2 1.5-2.6.3-.1.5-.3.4-.6-.1-.3-.3-.5-.6-.4-1.4.7-2.3 2-2.3 3.6 0 2.2 1.8 4 4 4s4-1.8 4-4v-6c0-1.6 1.4-3 3-3s3 1.3 3 3c0 1.1-.6 2-1.5 2.6-.3.1-.5.3-.4.6.1.3.3.5.6.4 1.4-.7 2.3-2 2.3-3.6 0-2.2-1.8-4-4-4z"/></svg><svg id="wenzhi-y" width="18" height="18" viewBox="-42 42 18 18" x="144" y="242"><style>.gost0{fill:#ffb800}</style><path class="gost0" d="M-33 59c-2.3 0-3-2-3-3 0 0 0-.5-.6-.8-1.2-.7-3.4-2.6-3.4-5.2 0-2.8 1.9-7 7-7 4.8 0 7 3.8 7 6.5 0 2.4-1.2 3.7-3.5 3.8-1.1.1-2-.2-2.6-.5-.6.3-1.2.4-2 .4s-1.4-.3-1.9-.8c-.7-.8-1.1-2-1.1-3.5h1c0 1.2.3 2.2.8 2.8.6.6 1.5.6 2.2.4-.7-.7-1-1.6-1-2.1 0-2 .7-3 2.1-3 .9 0 1.6.4 2 1.2.5 1.1.3 2.5-.2 3.2-.2.3-.5.5-.8.8.4.1.9.2 1.4.1 1.8-.1 2.5-.9 2.5-2.8 0-1.8-1.5-5.5-6-5.5-4.4 0-6 3.6-6 6 0 2.2 2.1 3.9 2.9 4.4.9.5 1.1 1.3 1.1 1.7 0 .2.1 2 2 2s2-1.9 2-2h1c.1.9-.6 2.9-2.9 2.9zm1.1-11c-.6 0-1.1.2-1.1 2 0 .4.2 1 .7 1.5.1.1.2.2.3.2.5-.3.9-.7 1.1-.9.2-.3.4-1.3.1-2.1-.3-.5-.6-.7-1.1-.7z"/></svg><svg width="18" height="18" viewBox="-42 42 18 18" id="wenzhi-y-#FFFFFF" x="162" y="242"><style>.gpst0{fill:#fff}</style><path class="gpst0" d="M-33 59c-2.3 0-3-2-3-3 0 0 0-.5-.6-.8-1.2-.7-3.4-2.6-3.4-5.2 0-2.8 1.9-7 7-7 4.8 0 7 3.8 7 6.5 0 2.4-1.2 3.7-3.5 3.8-1.1.1-2-.2-2.6-.5-.6.3-1.2.4-2 .4s-1.4-.3-1.9-.8c-.7-.8-1.1-2-1.1-3.5h1c0 1.2.3 2.2.8 2.8.6.6 1.5.6 2.2.4-.7-.7-1-1.6-1-2.1 0-2 .7-3 2.1-3 .9 0 1.6.4 2 1.2.5 1.1.3 2.5-.2 3.2-.2.3-.5.5-.8.8.4.1.9.2 1.4.1 1.8-.1 2.5-.9 2.5-2.8 0-1.8-1.5-5.5-6-5.5-4.4 0-6 3.6-6 6 0 2.2 2.1 3.9 2.9 4.4.9.5 1.1 1.3 1.1 1.7 0 .2.1 2 2 2s2-1.9 2-2h1c.1.9-.6 2.9-2.9 2.9zm1.1-11c-.6 0-1.1.2-1.1 2 0 .4.2 1 .7 1.5.1.1.2.2.3.2.5-.3.9-.7 1.1-.9.2-.3.4-1.3.1-2.1-.3-.5-.6-.7-1.1-.7z"/></svg><svg id="wetest-y" width="18" height="18" viewBox="-42 42 18 18" x="180" y="242"><style>.gqst0{fill:#ffb800}</style><path class="gqst0" d="M-31 53.7l-4-8.7-2.3 5.1H-41v1h4.3l1.7-3.6 4 8.7 2.3-5.1h3.7v-1h-4.3l-1.7 3.6zM-41 55h6v-1h-6v1zm10-8.9v1h6v-1h-6z"/></svg><svg width="18" height="18" viewBox="-42 42 18 18" id="wetest-y-#FFFFFF" x="198" y="242"><style>.grst0{fill:#fff}</style><path class="grst0" d="M-31 53.7l-4-8.7-2.3 5.1H-41v1h4.3l1.7-3.6 4 8.7 2.3-5.1h3.7v-1h-4.3l-1.7 3.6zM-41 55h6v-1h-6v1zm10-8.9v1h6v-1h-6z"/></svg><svg id="whale-y" width="18" height="18" viewBox="-42 42 18 18" x="216" y="242"><style>.gsst0{fill:#ffb800}</style><path class="gsst0" d="M-40 51c0-2.5 1.3-4.7 3.3-5.9l-.5-.8c-2.3 1.4-3.8 3.9-3.8 6.8s1.5 5.4 3.8 6.8l.5-.9c-2-1.3-3.3-3.5-3.3-6zm11.2-6.8l-.5.9c2 1.2 3.4 3.4 3.4 6 0 2.5-1.3 4.7-3.3 5.9l.5.8c2.3-1.4 3.8-3.9 3.8-6.8-.1-2.9-1.6-5.4-3.9-6.8zM-29 53h-7.4c-.1 0-.3-.1-.4-.3-.2-.4-.1-1.1.3-2 .4-.9 1-1.5 1.6-1.6.5-.1.9 0 1 .1.2.1.3.4.4.7.5.8 1 1.8 1.9 2 .5.1 1.4.1 2-.3.4-.3.6-.7.7-1.1.1-.7-.1-1.6-.8-2.2-.3-.2-.7-.4-1.3-.4-.1-.3-.2-.7-.6-1-.5-.4-1.1-.6-1.9-.4l.2 1c.5-.1.9 0 1.1.2.3.3.3.8.3.8 0 .2.1.3.2.4.1.1.3.1.4.1.4-.1.7-.1.9.1.3.3.5.9.4 1.3 0 .2-.1.3-.2.4-.3.2-.9.2-1.1.1-.4-.1-.9-.9-1.3-1.5-.2-.3-.3-.5-.5-.8-.4-.6-1.1-.6-2-.5-.6.1-1.7.6-2.4 2.2-.5 1.2-.6 2.2-.2 2.8.4.7 1 .8 1.1.8h7.6V53z"/></svg><svg width="18" height="18" viewBox="-42 42 18 18" id="whale-y-#FFFFFF" x="126" y="98"><style>.gtst0{fill:#fff}</style><path class="gtst0" d="M-40 51c0-2.5 1.3-4.7 3.3-5.9l-.5-.8c-2.3 1.4-3.8 3.9-3.8 6.8s1.5 5.4 3.8 6.8l.5-.9c-2-1.3-3.3-3.5-3.3-6zm11.2-6.8l-.5.9c2 1.2 3.4 3.4 3.4 6 0 2.5-1.3 4.7-3.3 5.9l.5.8c2.3-1.4 3.8-3.9 3.8-6.8-.1-2.9-1.6-5.4-3.9-6.8zM-29 53h-7.4c-.1 0-.3-.1-.4-.3-.2-.4-.1-1.1.3-2 .4-.9 1-1.5 1.6-1.6.5-.1.9 0 1 .1.2.1.3.4.4.7.5.8 1 1.8 1.9 2 .5.1 1.4.1 2-.3.4-.3.6-.7.7-1.1.1-.7-.1-1.6-.8-2.2-.3-.2-.7-.4-1.3-.4-.1-.3-.2-.7-.6-1-.5-.4-1.1-.6-1.9-.4l.2 1c.5-.1.9 0 1.1.2.3.3.3.8.3.8 0 .2.1.3.2.4.1.1.3.1.4.1.4-.1.7-.1.9.1.3.3.5.9.4 1.3 0 .2-.1.3-.2.4-.3.2-.9.2-1.1.1-.4-.1-.9-.9-1.3-1.5-.2-.3-.3-.5-.5-.8-.4-.6-1.1-.6-2-.5-.6.1-1.7.6-2.4 2.2-.5 1.2-.6 2.2-.2 2.8.4.7 1 .8 1.1.8h7.6V53z"/></svg></svg>